<svg width="375" height="455" viewBox="0 0 375 455" fill="none" xmlns="http://www.w3.org/2000/svg">
<path d="M3.69594 335.428C4.96311 325.995 12.9064 323.754 16.7197 323.812C18.8317 323.108 18.1277 320.468 16.7197 320.292C3.48474 320.856 0.175997 330.5 0.175997 335.252L0 348.804C1.12638 360.068 10.0905 363.823 14.4318 364.292L20.2397 364.468H27.1035C38.9305 364.89 43.1779 354.788 43.8232 349.684V335.253C43.6824 332.296 42.1219 329.093 41.3593 327.861C37.417 321.243 30.6821 320.058 27.8075 320.293C25.8716 321.349 26.6929 323.343 27.8075 323.812C36.6778 324.375 39.7166 331.674 40.1273 335.253V347.924C39.9865 350.459 39.7166 351.796 39.5993 352.148C36.5018 359.61 29.9781 361.007 27.1035 360.772H20.2397C14.6077 360.913 12.3785 360.361 11.9678 360.068C5.7727 357.815 3.87193 351.62 3.69594 348.804L3.69594 335.428Z" fill="#A20021" fill-opacity="0.16"/>
<path d="M19.7124 319.416C19.5716 318.29 20.5924 317.891 21.1204 317.832H23.2322C24.3586 317.973 24.6402 318.947 24.6402 319.416L24.1122 324.696C24.1122 325.541 23.5255 325.869 23.2322 325.928H21.1204C20.4165 325.787 20.123 325.048 20.0643 324.696C20.0057 323.405 19.8532 320.542 19.7124 319.416Z" fill="#A20021" fill-opacity="0.16"/>
<path d="M7.92188 335.605C10.4562 326.171 18.247 327.919 21.8256 329.973H22.5296C30.2735 325.045 35.7294 331.733 35.7294 336.421V351.445C35.5886 355.105 32.0335 356.255 30.2735 356.373V336.421C29.0415 332.085 24.8176 334.021 24.6416 336.421V355.317C24.6416 356.161 23.9376 356.373 23.5856 356.373H20.0657C19.3617 356.232 19.1857 355.61 19.1857 355.317V336.421C17.6017 331.909 13.3778 334.373 13.5538 336.661L13.5538 356.373C9.32985 356.232 8.03921 353.029 7.92187 351.445L7.92188 335.605Z" fill="#A20021" fill-opacity="0.16"/>
<path d="M3.96937 277.6C5.23655 268.167 13.1799 265.926 16.9931 265.984C19.1051 265.28 18.4011 262.64 16.9931 262.464C3.75818 263.028 0.449434 272.672 0.449434 277.424L0.273437 290.976C1.39982 302.24 10.3639 305.994 14.7052 306.464L20.5131 306.64H27.377C39.204 307.062 43.4514 296.96 44.0967 291.856V277.424C43.9559 274.468 42.3954 271.265 41.6327 270.033C37.6904 263.415 30.9556 262.23 28.081 262.465C26.145 263.521 26.9663 265.515 28.081 265.984C36.9512 266.547 39.9901 273.846 40.4007 277.424V290.096C40.2599 292.631 39.9901 293.968 39.8728 294.32C36.7752 301.782 30.2516 303.179 27.377 302.944H20.5131C14.8812 303.085 12.6519 302.533 12.2412 302.24C6.04614 299.987 4.14537 293.792 3.96937 290.976L3.96937 277.6Z" fill="#A20021" fill-opacity="0.16"/>
<path d="M19.9859 261.584C19.8451 260.458 20.8658 260.059 21.3938 260H23.5057C24.632 260.141 24.9136 261.115 24.9136 261.584L24.3856 266.864C24.3856 267.709 23.799 268.037 23.5057 268.096H21.3938C20.6899 267.955 20.3965 267.216 20.3377 266.864C20.2791 265.573 20.1266 262.71 19.9859 261.584Z" fill="#A20021" fill-opacity="0.16"/>
<path d="M8.19531 277.777C10.7297 268.343 18.5205 270.091 22.0991 272.145H22.8031C30.5469 267.217 36.0028 273.905 36.0028 278.593V293.617C35.862 297.277 32.3069 298.427 30.5469 298.544V278.593C29.3149 274.257 25.091 276.193 24.915 278.593V297.488C24.915 298.333 24.211 298.544 23.859 298.544H20.3391C19.6351 298.404 19.4591 297.782 19.4591 297.488V278.593C17.8751 274.081 13.6512 276.545 13.8272 278.833L13.8272 298.544C9.60329 298.404 8.31264 295.201 8.19531 293.617L8.19531 277.777Z" fill="#A20021" fill-opacity="0.16"/>
<path d="M3.96937 219.6C5.23655 210.167 13.1799 207.926 16.9931 207.984C19.1051 207.28 18.4011 204.64 16.9931 204.464C3.75818 205.028 0.449434 214.672 0.449434 219.424L0.273437 232.976C1.39982 244.24 10.3639 247.994 14.7052 248.464L20.5131 248.64H27.377C39.204 249.062 43.4514 238.96 44.0967 233.856V219.424C43.9559 216.468 42.3954 213.265 41.6327 212.033C37.6904 205.415 30.9556 204.23 28.081 204.465C26.145 205.521 26.9663 207.515 28.081 207.984C36.9512 208.547 39.9901 215.846 40.4007 219.424V232.096C40.2599 234.631 39.9901 235.968 39.8728 236.32C36.7752 243.782 30.2516 245.179 27.377 244.944H20.5131C14.8812 245.085 12.6519 244.533 12.2412 244.24C6.04614 241.987 4.14537 235.792 3.96937 232.976L3.96937 219.6Z" fill="#A20021" fill-opacity="0.16"/>
<path d="M19.9859 203.584C19.8451 202.458 20.8658 202.059 21.3938 202H23.5057C24.632 202.141 24.9136 203.115 24.9136 203.584L24.3856 208.864C24.3856 209.709 23.799 210.037 23.5057 210.096H21.3938C20.6899 209.955 20.3965 209.216 20.3377 208.864C20.2791 207.573 20.1266 204.71 19.9859 203.584Z" fill="#A20021" fill-opacity="0.16"/>
<path d="M8.19531 219.777C10.7297 210.343 18.5205 212.091 22.0991 214.145H22.8031C30.5469 209.217 36.0028 215.905 36.0028 220.593V235.617C35.862 239.277 32.3069 240.427 30.5469 240.544V220.593C29.3149 216.257 25.091 218.193 24.915 220.593V239.488C24.915 240.333 24.211 240.544 23.859 240.544H20.3391C19.6351 240.404 19.4591 239.782 19.4591 239.488V220.593C17.8751 216.081 13.6512 218.545 13.8272 220.833L13.8272 240.544C9.60329 240.404 8.31264 237.201 8.19531 235.617L8.19531 219.777Z" fill="#A20021" fill-opacity="0.16"/>
<path d="M3.96937 161.6C5.23655 152.167 13.1799 149.926 16.9931 149.984C19.1051 149.28 18.4011 146.64 16.9931 146.464C3.75818 147.028 0.449434 156.672 0.449434 161.424L0.273437 174.976C1.39982 186.24 10.3639 189.994 14.7052 190.464L20.5131 190.64H27.377C39.204 191.062 43.4514 180.96 44.0967 175.856V161.424C43.9559 158.468 42.3954 155.265 41.6327 154.033C37.6904 147.415 30.9556 146.23 28.081 146.465C26.145 147.521 26.9663 149.515 28.081 149.984C36.9512 150.547 39.9901 157.846 40.4007 161.424V174.096C40.2599 176.631 39.9901 177.968 39.8728 178.32C36.7752 185.782 30.2516 187.179 27.377 186.944H20.5131C14.8812 187.085 12.6519 186.533 12.2412 186.24C6.04614 183.987 4.14537 177.792 3.96937 174.976L3.96937 161.6Z" fill="#A20021" fill-opacity="0.16"/>
<path d="M19.9859 145.584C19.8451 144.458 20.8658 144.059 21.3938 144H23.5057C24.632 144.141 24.9136 145.115 24.9136 145.584L24.3856 150.864C24.3856 151.709 23.799 152.037 23.5057 152.096H21.3938C20.6899 151.955 20.3965 151.216 20.3377 150.864C20.2791 149.573 20.1266 146.71 19.9859 145.584Z" fill="#A20021" fill-opacity="0.16"/>
<path d="M8.19531 161.777C10.7297 152.343 18.5205 154.091 22.0991 156.145H22.8031C30.5469 151.217 36.0028 157.905 36.0028 162.593V177.617C35.862 181.277 32.3069 182.427 30.5469 182.544V162.593C29.3149 158.257 25.091 160.193 24.915 162.593V181.488C24.915 182.333 24.211 182.544 23.859 182.544H20.3391C19.6351 182.404 19.4591 181.782 19.4591 181.488V162.593C17.8751 158.081 13.6512 160.545 13.8272 162.833L13.8272 182.544C9.60329 182.404 8.31264 179.201 8.19531 177.617L8.19531 161.777Z" fill="#A20021" fill-opacity="0.16"/>
<path d="M3.96937 103.6C5.23655 94.1667 13.1799 91.9257 16.9931 91.9843C19.1051 91.2803 18.4011 88.6403 16.9931 88.4643C3.75818 89.0275 0.449434 98.6721 0.449434 103.424L0.273437 116.976C1.39982 128.24 10.3639 131.994 14.7052 132.464L20.5131 132.64H27.377C39.204 133.062 43.4514 122.96 44.0967 117.856V103.424C43.9559 100.468 42.3954 97.2646 41.6327 96.0325C37.6904 89.415 30.9556 88.23 28.081 88.4646C26.145 89.5206 26.9663 91.5151 28.081 91.9843C36.9512 92.5473 39.9901 99.8456 40.4007 103.424V116.096C40.2599 118.631 39.9901 119.968 39.8728 120.32C36.7752 127.782 30.2516 129.179 27.377 128.944H20.5131C14.8812 129.085 12.6519 128.533 12.2412 128.24C6.04614 125.987 4.14537 119.792 3.96937 116.976L3.96937 103.6Z" fill="#A20021" fill-opacity="0.16"/>
<path d="M19.9859 87.584C19.8451 86.4576 20.8658 86.0587 21.3938 86H23.5057C24.632 86.1408 24.9136 87.1146 24.9136 87.584L24.3856 92.8639C24.3856 93.7087 23.799 94.0372 23.5057 94.0959H21.3938C20.6899 93.9551 20.3965 93.2159 20.3377 92.8639C20.2791 91.5732 20.1266 88.7104 19.9859 87.584Z" fill="#A20021" fill-opacity="0.16"/>
<path d="M8.19531 103.777C10.7297 94.3431 18.5205 96.0913 22.0991 98.1446H22.8031C30.5469 93.2171 36.0028 99.9051 36.0028 104.593V119.617C35.862 123.277 32.3069 124.427 30.5469 124.544V104.593C29.3149 100.257 25.091 102.193 24.915 104.593V123.488C24.915 124.333 24.211 124.544 23.859 124.544H20.3391C19.6351 124.404 19.4591 123.782 19.4591 123.488V104.593C17.8751 100.081 13.6512 102.545 13.8272 104.833L13.8272 124.544C9.60329 124.404 8.31264 121.201 8.19531 119.617L8.19531 103.777Z" fill="#A20021" fill-opacity="0.16"/>
<path d="M3.96937 45.6001C5.23655 36.1667 13.1799 33.9257 16.9931 33.9843C19.1051 33.2803 18.4011 30.6403 16.9931 30.4643C3.75818 31.0275 0.449434 40.6721 0.449434 45.4241L0.273437 58.9762C1.39982 70.2402 10.3639 73.9944 14.7052 74.4636L20.5131 74.6395H27.377C39.204 75.0619 43.4514 64.9597 44.0967 59.8558V45.4244C43.9559 42.4679 42.3954 39.2646 41.6327 38.0325C37.6904 31.415 30.9556 30.23 28.081 30.4646C26.145 31.5206 26.9663 33.5151 28.081 33.9843C36.9512 34.5473 39.9901 41.8456 40.4007 45.4244V58.0962C40.2599 60.6305 39.9901 61.9681 39.8728 62.3201C36.7752 69.7824 30.2516 71.1786 27.377 70.9439H20.5131C14.8812 71.0847 12.6519 70.5333 12.2412 70.24C6.04614 67.9872 4.14537 61.7921 3.96937 58.9762L3.96937 45.6001Z" fill="#A20021" fill-opacity="0.16"/>
<path d="M19.9859 29.584C19.8451 28.4576 20.8658 28.0587 21.3938 28H23.5057C24.632 28.1408 24.9136 29.1146 24.9136 29.584L24.3856 34.8639C24.3856 35.7087 23.799 36.0372 23.5057 36.0959H21.3938C20.6899 35.9551 20.3965 35.2159 20.3377 34.8639C20.2791 33.5732 20.1266 30.7104 19.9859 29.584Z" fill="#A20021" fill-opacity="0.16"/>
<path d="M8.19531 45.7765C10.7297 36.3431 18.5205 38.0913 22.0991 40.1446H22.8031C30.5469 35.2171 36.0028 41.9051 36.0028 46.5927V61.6166C35.862 65.2773 32.3069 66.4271 30.5469 66.5445V46.5927C29.3149 42.2569 25.091 44.1929 24.915 46.5927V65.4885C24.915 66.3333 24.211 66.5445 23.859 66.5445H20.3391C19.6351 66.4037 19.4591 65.7818 19.4591 65.4885V46.5927C17.8751 42.0809 13.6512 44.5449 13.8272 46.8328L13.8272 66.5445C9.60329 66.4037 8.31264 63.2005 8.19531 61.6166L8.19531 45.7765Z" fill="#A20021" fill-opacity="0.16"/>
<path d="M3.96937 -12.3999C5.23655 -21.8333 13.1799 -24.0743 16.9931 -24.0157C19.1051 -24.7197 18.4011 -27.3597 16.9931 -27.5357C3.75818 -26.9725 0.449434 -17.3279 0.449434 -12.5759L0.273437 0.976154C1.39982 12.2402 10.3639 15.9944 14.7052 16.4636L20.5131 16.6395H27.377C39.204 17.0619 43.4514 6.95972 44.0967 1.8558V-12.5756C43.9559 -15.5321 42.3954 -18.7354 41.6327 -19.9675C37.6904 -26.585 30.9556 -27.77 28.081 -27.5354C26.145 -26.4794 26.9663 -24.4849 28.081 -24.0157C36.9512 -23.4527 39.9901 -16.1544 40.4007 -12.5756V0.0961704C40.2599 2.63053 39.9901 3.9681 39.8728 4.3201C36.7752 11.7824 30.2516 13.1786 27.377 12.9439H20.5131C14.8812 13.0847 12.6519 12.5333 12.2412 12.24C6.04614 9.9872 4.14537 3.79211 3.96937 0.976154L3.96937 -12.3999Z" fill="#A20021" fill-opacity="0.16"/>
<path d="M8.19531 -12.2235C10.7297 -21.6569 18.5205 -19.9087 22.0991 -17.8554H22.8031C30.5469 -22.7829 36.0028 -16.0949 36.0028 -11.4073V3.61656C35.862 7.2773 32.3069 8.42715 30.5469 8.54448V-11.4073C29.3149 -15.7431 25.091 -13.8071 24.915 -11.4073V7.48849C24.915 8.33328 24.211 8.54448 23.859 8.54448H20.3391C19.6351 8.40368 19.4591 7.78182 19.4591 7.48849V-11.4073C17.8751 -15.9191 13.6512 -13.4551 13.8272 -11.1672L13.8272 8.54448C9.60329 8.40368 8.31264 5.20053 8.19531 3.61656L8.19531 -12.2235Z" fill="#A20021" fill-opacity="0.16"/>
<path d="M3.96937 392.6C5.23655 383.167 13.1799 380.926 16.9931 380.984C19.1051 380.28 18.4011 377.64 16.9931 377.464C3.75818 378.028 0.449434 387.672 0.449434 392.424L0.273437 405.976C1.39982 417.24 10.3639 420.994 14.7052 421.464L20.5131 421.64H27.377C39.204 422.062 43.4514 411.96 44.0967 406.856V392.424C43.9559 389.468 42.3954 386.265 41.6327 385.033C37.6904 378.415 30.9556 377.23 28.081 377.465C26.145 378.521 26.9663 380.515 28.081 380.984C36.9512 381.547 39.9901 388.846 40.4007 392.424V405.096C40.2599 407.631 39.9901 408.968 39.8728 409.32C36.7752 416.782 30.2516 418.179 27.377 417.944H20.5131C14.8812 418.085 12.6519 417.533 12.2412 417.24C6.04614 414.987 4.14537 408.792 3.96937 405.976L3.96937 392.6Z" fill="#A20021" fill-opacity="0.16"/>
<path d="M19.9859 376.584C19.8451 375.458 20.8658 375.059 21.3938 375H23.5057C24.632 375.141 24.9136 376.115 24.9136 376.584L24.3856 381.864C24.3856 382.709 23.799 383.037 23.5057 383.096H21.3938C20.6899 382.955 20.3965 382.216 20.3377 381.864C20.2791 380.573 20.1266 377.71 19.9859 376.584Z" fill="#A20021" fill-opacity="0.16"/>
<path d="M8.19531 392.777C10.7297 383.343 18.5205 385.091 22.0991 387.145H22.8031C30.5469 382.217 36.0028 388.905 36.0028 393.593V408.617C35.862 412.277 32.3069 413.427 30.5469 413.544V393.593C29.3149 389.257 25.091 391.193 24.915 393.593V412.488C24.915 413.333 24.211 413.544 23.859 413.544H20.3391C19.6351 413.404 19.4591 412.782 19.4591 412.488V393.593C17.8751 389.081 13.6512 391.545 13.8272 393.833L13.8272 413.544C9.60329 413.404 8.31264 410.201 8.19531 408.617L8.19531 392.777Z" fill="#A20021" fill-opacity="0.16"/>
<path d="M58.7897 366.428C60.0569 356.995 68.0002 354.754 71.8135 354.812C73.9254 354.108 73.2214 351.468 71.8135 351.292C58.5785 351.856 55.2697 361.5 55.2697 366.252L55.0938 379.804C56.2201 391.068 65.1842 394.823 69.5255 395.292L75.3334 395.468H82.1973C94.0243 395.89 98.2717 385.788 98.917 380.684V366.253C98.7762 363.296 97.2157 360.093 96.453 358.861C92.5107 352.243 85.7759 351.058 82.9013 351.293C80.9653 352.349 81.7866 354.343 82.9013 354.812C91.7715 355.375 94.8104 362.674 95.2211 366.253V378.924C95.0803 381.459 94.8104 382.796 94.6931 383.148C91.5955 390.61 85.0719 392.007 82.1973 391.772H75.3334C69.7015 391.913 67.4722 391.361 67.0615 391.068C60.8665 388.815 58.9657 382.62 58.7897 379.804V366.428Z" fill="#A20021" fill-opacity="0.16"/>
<path d="M74.8062 350.416C74.6654 349.29 75.6861 348.891 76.2141 348.832H78.326C79.4524 348.973 79.7339 349.947 79.7339 350.416L79.206 355.696C79.206 356.541 78.6193 356.869 78.326 356.928H76.2141C75.5103 356.787 75.2168 356.048 75.158 355.696C75.0994 354.405 74.947 351.542 74.8062 350.416Z" fill="#A20021" fill-opacity="0.16"/>
<path d="M63.0156 366.605C65.55 357.171 73.3408 358.919 76.9194 360.973H77.6234C85.3672 356.045 90.8231 362.733 90.8231 367.421V382.445C90.6823 386.105 87.1272 387.255 85.3672 387.373V367.421C84.1353 363.085 79.9113 365.021 79.7353 367.421V386.317C79.7353 387.161 79.0313 387.373 78.6794 387.373H75.1594C74.4554 387.232 74.2794 386.61 74.2794 386.317V367.421C72.6955 362.909 68.4715 365.373 68.6475 367.661V387.373C64.4236 387.232 63.133 384.029 63.0156 382.445V366.605Z" fill="#A20021" fill-opacity="0.16"/>
<path d="M59.0631 308.6C60.3303 299.167 68.2736 296.926 72.0869 296.984C74.1989 296.28 73.4949 293.64 72.0869 293.464C58.8519 294.028 55.5432 303.672 55.5432 308.424L55.3672 321.976C56.4936 333.24 65.4577 336.994 69.7989 337.464L75.6068 337.64H82.4707C94.2977 338.062 98.5451 327.96 99.1904 322.856V308.424C99.0496 305.468 97.4891 302.265 96.7265 301.033C92.7841 294.415 86.0493 293.23 83.1747 293.465C81.2387 294.521 82.0601 296.515 83.1747 296.984C92.045 297.547 95.0838 304.846 95.4945 308.424V321.096C95.3537 323.631 95.0838 324.968 94.9665 325.32C91.869 332.782 85.3453 334.179 82.4707 333.944H75.6068C69.9749 334.085 67.7456 333.533 67.335 333.24C61.1399 330.987 59.2391 324.792 59.0631 321.976V308.6Z" fill="#A20021" fill-opacity="0.16"/>
<path d="M75.0796 292.584C74.9388 291.458 75.9596 291.059 76.4876 291H78.5994C79.7258 291.141 80.0074 292.115 80.0074 292.584L79.4794 297.864C79.4794 298.709 78.8927 299.037 78.5994 299.096H76.4876C75.7837 298.955 75.4902 298.216 75.4315 297.864C75.3728 296.573 75.2204 293.71 75.0796 292.584Z" fill="#A20021" fill-opacity="0.16"/>
<path d="M63.2891 308.777C65.8234 299.343 73.6142 301.091 77.1928 303.145H77.8968C85.6407 298.217 91.0966 304.905 91.0966 309.593V324.617C90.9558 328.277 87.4006 329.427 85.6407 329.544V309.593C84.4087 305.257 80.1848 307.193 80.0088 309.593V328.488C80.0088 329.333 79.3048 329.544 78.9528 329.544H75.4329C74.7289 329.404 74.5529 328.782 74.5529 328.488V309.593C72.9689 305.081 68.745 307.545 68.921 309.833V329.544C64.697 329.404 63.4064 326.201 63.2891 324.617V308.777Z" fill="#A20021" fill-opacity="0.16"/>
<path d="M59.0631 250.6C60.3303 241.167 68.2736 238.926 72.0869 238.984C74.1989 238.28 73.4949 235.64 72.0869 235.464C58.8519 236.028 55.5432 245.672 55.5432 250.424L55.3672 263.976C56.4936 275.24 65.4577 278.994 69.7989 279.464L75.6068 279.64H82.4707C94.2977 280.062 98.5451 269.96 99.1904 264.856V250.424C99.0496 247.468 97.4891 244.265 96.7265 243.033C92.7841 236.415 86.0493 235.23 83.1747 235.465C81.2387 236.521 82.0601 238.515 83.1747 238.984C92.045 239.547 95.0838 246.846 95.4945 250.424V263.096C95.3537 265.631 95.0838 266.968 94.9665 267.32C91.869 274.782 85.3453 276.179 82.4707 275.944H75.6068C69.9749 276.085 67.7456 275.533 67.335 275.24C61.1399 272.987 59.2391 266.792 59.0631 263.976V250.6Z" fill="#A20021" fill-opacity="0.16"/>
<path d="M75.0796 234.584C74.9388 233.458 75.9596 233.059 76.4876 233H78.5994C79.7258 233.141 80.0074 234.115 80.0074 234.584L79.4794 239.864C79.4794 240.709 78.8927 241.037 78.5994 241.096H76.4876C75.7837 240.955 75.4902 240.216 75.4315 239.864C75.3728 238.573 75.2204 235.71 75.0796 234.584Z" fill="#A20021" fill-opacity="0.16"/>
<path d="M63.2891 250.777C65.8234 241.343 73.6142 243.091 77.1928 245.145H77.8968C85.6407 240.217 91.0966 246.905 91.0966 251.593V266.617C90.9558 270.277 87.4006 271.427 85.6407 271.544V251.593C84.4087 247.257 80.1848 249.193 80.0088 251.593V270.488C80.0088 271.333 79.3048 271.544 78.9528 271.544H75.4329C74.7289 271.404 74.5529 270.782 74.5529 270.488V251.593C72.9689 247.081 68.745 249.545 68.921 251.833V271.544C64.697 271.404 63.4064 268.201 63.2891 266.617V250.777Z" fill="#A20021" fill-opacity="0.16"/>
<path d="M59.0631 192.6C60.3303 183.167 68.2736 180.926 72.0869 180.984C74.1989 180.28 73.4949 177.64 72.0869 177.464C58.8519 178.028 55.5432 187.672 55.5432 192.424L55.3672 205.976C56.4936 217.24 65.4577 220.994 69.7989 221.464L75.6068 221.64H82.4707C94.2977 222.062 98.5451 211.96 99.1904 206.856V192.424C99.0496 189.468 97.4891 186.265 96.7265 185.033C92.7841 178.415 86.0493 177.23 83.1747 177.465C81.2387 178.521 82.0601 180.515 83.1747 180.984C92.045 181.547 95.0838 188.846 95.4945 192.424V205.096C95.3537 207.631 95.0838 208.968 94.9665 209.32C91.869 216.782 85.3453 218.179 82.4707 217.944H75.6068C69.9749 218.085 67.7456 217.533 67.335 217.24C61.1399 214.987 59.2391 208.792 59.0631 205.976V192.6Z" fill="#A20021" fill-opacity="0.16"/>
<path d="M75.0796 176.584C74.9388 175.458 75.9596 175.059 76.4876 175H78.5994C79.7258 175.141 80.0074 176.115 80.0074 176.584L79.4794 181.864C79.4794 182.709 78.8927 183.037 78.5994 183.096H76.4876C75.7837 182.955 75.4902 182.216 75.4315 181.864C75.3728 180.573 75.2204 177.71 75.0796 176.584Z" fill="#A20021" fill-opacity="0.16"/>
<path d="M63.2891 192.777C65.8234 183.343 73.6142 185.091 77.1928 187.145H77.8968C85.6407 182.217 91.0966 188.905 91.0966 193.593V208.617C90.9558 212.277 87.4006 213.427 85.6407 213.544V193.593C84.4087 189.257 80.1848 191.193 80.0088 193.593V212.488C80.0088 213.333 79.3048 213.544 78.9528 213.544H75.4329C74.7289 213.404 74.5529 212.782 74.5529 212.488V193.593C72.9689 189.081 68.745 191.545 68.921 193.833V213.544C64.697 213.404 63.4064 210.201 63.2891 208.617V192.777Z" fill="#A20021" fill-opacity="0.16"/>
<path d="M59.0631 134.6C60.3303 125.167 68.2736 122.926 72.0869 122.984C74.1989 122.28 73.4949 119.64 72.0869 119.464C58.8519 120.028 55.5432 129.672 55.5432 134.424L55.3672 147.976C56.4936 159.24 65.4577 162.994 69.7989 163.464L75.6068 163.64H82.4707C94.2977 164.062 98.5451 153.96 99.1904 148.856V134.424C99.0496 131.468 97.4891 128.265 96.7265 127.033C92.7841 120.415 86.0493 119.23 83.1747 119.465C81.2387 120.521 82.0601 122.515 83.1747 122.984C92.045 123.547 95.0838 130.846 95.4945 134.424V147.096C95.3537 149.631 95.0838 150.968 94.9665 151.32C91.869 158.782 85.3453 160.179 82.4707 159.944H75.6068C69.9749 160.085 67.7456 159.533 67.335 159.24C61.1399 156.987 59.2391 150.792 59.0631 147.976V134.6Z" fill="#A20021" fill-opacity="0.16"/>
<path d="M75.0796 118.584C74.9388 117.458 75.9596 117.059 76.4876 117H78.5994C79.7258 117.141 80.0074 118.115 80.0074 118.584L79.4794 123.864C79.4794 124.709 78.8927 125.037 78.5994 125.096H76.4876C75.7837 124.955 75.4902 124.216 75.4315 123.864C75.3728 122.573 75.2204 119.71 75.0796 118.584Z" fill="#A20021" fill-opacity="0.16"/>
<path d="M63.2891 134.777C65.8234 125.343 73.6142 127.091 77.1928 129.145H77.8968C85.6407 124.217 91.0966 130.905 91.0966 135.593V150.617C90.9558 154.277 87.4006 155.427 85.6407 155.544V135.593C84.4087 131.257 80.1848 133.193 80.0088 135.593V154.488C80.0088 155.333 79.3048 155.544 78.9528 155.544H75.4329C74.7289 155.404 74.5529 154.782 74.5529 154.488V135.593C72.9689 131.081 68.745 133.545 68.921 135.833V155.544C64.697 155.404 63.4064 152.201 63.2891 150.617V134.777Z" fill="#A20021" fill-opacity="0.16"/>
<path d="M59.0631 76.6001C60.3303 67.1667 68.2736 64.9257 72.0869 64.9843C74.1989 64.2803 73.4949 61.6403 72.0869 61.4643C58.8519 62.0275 55.5432 71.6721 55.5432 76.4241L55.3672 89.9762C56.4936 101.24 65.4577 104.994 69.7989 105.464L75.6068 105.64H82.4707C94.2977 106.062 98.5451 95.9597 99.1904 90.8558V76.4244C99.0496 73.4679 97.4891 70.2646 96.7265 69.0325C92.7841 62.415 86.0493 61.23 83.1747 61.4646C81.2387 62.5206 82.0601 64.5151 83.1747 64.9843C92.045 65.5473 95.0838 72.8456 95.4945 76.4244V89.0962C95.3537 91.6305 95.0838 92.9681 94.9665 93.3201C91.869 100.782 85.3453 102.179 82.4707 101.944H75.6068C69.9749 102.085 67.7456 101.533 67.335 101.24C61.1399 98.9872 59.2391 92.7921 59.0631 89.9762V76.6001Z" fill="#A20021" fill-opacity="0.16"/>
<path d="M75.0796 60.584C74.9388 59.4576 75.9596 59.0587 76.4876 59H78.5994C79.7258 59.1408 80.0074 60.1146 80.0074 60.584L79.4794 65.8639C79.4794 66.7087 78.8927 67.0372 78.5994 67.0959H76.4876C75.7837 66.9551 75.4902 66.2159 75.4315 65.8639C75.3728 64.5732 75.2204 61.7104 75.0796 60.584Z" fill="#A20021" fill-opacity="0.16"/>
<path d="M63.2891 76.7765C65.8234 67.3431 73.6142 69.0913 77.1928 71.1446H77.8968C85.6407 66.2171 91.0966 72.9051 91.0966 77.5927V92.6166C90.9558 96.2773 87.4006 97.4271 85.6407 97.5445V77.5927C84.4087 73.2569 80.1848 75.1929 80.0088 77.5927V96.4885C80.0088 97.3333 79.3048 97.5445 78.9528 97.5445H75.4329C74.7289 97.4037 74.5529 96.7818 74.5529 96.4885V77.5927C72.9689 73.0809 68.745 75.5449 68.921 77.8328V97.5445C64.697 97.4037 63.4064 94.2005 63.2891 92.6166V76.7765Z" fill="#A20021" fill-opacity="0.16"/>
<path d="M59.0631 18.6001C60.3303 9.16669 68.2736 6.92566 72.0869 6.98433C74.1989 6.28026 73.4949 3.64031 72.0869 3.46431C58.8519 4.0275 55.5432 13.6721 55.5432 18.4241L55.3672 31.9762C56.4936 43.2402 65.4577 46.9944 69.7989 47.4636L75.6068 47.6395H82.4707C94.2977 48.0619 98.5451 37.9597 99.1904 32.8558V18.4244C99.0496 15.4679 97.4891 12.2646 96.7265 11.0325C92.7841 4.41503 86.0493 3.22999 83.1747 3.46465C81.2387 4.52063 82.0601 6.51509 83.1747 6.98433C92.045 7.54731 95.0838 14.8456 95.4945 18.4244V31.0962C95.3537 33.6305 95.0838 34.9681 94.9665 35.3201C91.869 42.7824 85.3453 44.1786 82.4707 43.9439H75.6068C69.9749 44.0847 67.7456 43.5333 67.335 43.24C61.1399 40.9872 59.2391 34.7921 59.0631 31.9762V18.6001Z" fill="#A20021" fill-opacity="0.16"/>
<path d="M75.0796 2.58397C74.9388 1.45759 75.9596 1.05867 76.4876 1L78.5994 1C79.7258 1.1408 80.0074 2.11465 80.0074 2.58397L79.4794 7.86388C79.4794 8.70867 78.8927 9.03719 78.5994 9.09586H76.4876C75.7837 8.95506 75.4902 8.21587 75.4315 7.86388C75.3728 6.57324 75.2204 3.71035 75.0796 2.58397Z" fill="#A20021" fill-opacity="0.16"/>
<path d="M63.2891 18.7765C65.8234 9.34311 73.6142 11.0913 77.1928 13.1446H77.8968C85.6407 8.21706 91.0966 14.9051 91.0966 19.5927V34.6166C90.9558 38.2773 87.4006 39.4271 85.6407 39.5445V19.5927C84.4087 15.2569 80.1848 17.1929 80.0088 19.5927V38.4885C80.0088 39.3333 79.3048 39.5445 78.9528 39.5445H75.4329C74.7289 39.4037 74.5529 38.7818 74.5529 38.4885V19.5927C72.9689 15.0809 68.745 17.5449 68.921 19.8328V39.5445C64.697 39.4037 63.4064 36.2005 63.2891 34.6166V18.7765Z" fill="#A20021" fill-opacity="0.16"/>
<path d="M59.0631 423.6C60.3303 414.167 68.2736 411.926 72.0869 411.984C74.1989 411.28 73.4949 408.64 72.0869 408.464C58.8519 409.028 55.5432 418.672 55.5432 423.424L55.3672 436.976C56.4936 448.24 65.4577 451.994 69.7989 452.464L75.6068 452.64H82.4707C94.2977 453.062 98.5451 442.96 99.1904 437.856V423.424C99.0496 420.468 97.4891 417.265 96.7265 416.033C92.7841 409.415 86.0493 408.23 83.1747 408.465C81.2387 409.521 82.0601 411.515 83.1747 411.984C92.045 412.547 95.0838 419.846 95.4945 423.424V436.096C95.3537 438.631 95.0838 439.968 94.9665 440.32C91.869 447.782 85.3453 449.179 82.4707 448.944H75.6068C69.9749 449.085 67.7456 448.533 67.335 448.24C61.1399 445.987 59.2391 439.792 59.0631 436.976V423.6Z" fill="#A20021" fill-opacity="0.16"/>
<path d="M75.0796 407.584C74.9388 406.458 75.9596 406.059 76.4876 406H78.5994C79.7258 406.141 80.0074 407.115 80.0074 407.584L79.4794 412.864C79.4794 413.709 78.8927 414.037 78.5994 414.096H76.4876C75.7837 413.955 75.4902 413.216 75.4315 412.864C75.3728 411.573 75.2204 408.71 75.0796 407.584Z" fill="#A20021" fill-opacity="0.16"/>
<path d="M63.2891 423.777C65.8234 414.343 73.6142 416.091 77.1928 418.145H77.8968C85.6407 413.217 91.0966 419.905 91.0966 424.593V439.617C90.9558 443.277 87.4006 444.427 85.6407 444.544V424.593C84.4087 420.257 80.1848 422.193 80.0088 424.593V443.488C80.0088 444.333 79.3048 444.544 78.9528 444.544H75.4329C74.7289 444.404 74.5529 443.782 74.5529 443.488V424.593C72.9689 420.081 68.745 422.545 68.921 424.833V444.544C64.697 444.404 63.4064 441.201 63.2891 439.617V423.777Z" fill="#A20021" fill-opacity="0.16"/>
<path d="M113.887 335.428C115.155 325.995 123.098 323.754 126.911 323.812C129.023 323.108 128.319 320.468 126.911 320.292C113.676 320.856 110.367 330.5 110.367 335.252L110.191 348.804C111.318 360.068 120.282 363.823 124.623 364.292L130.431 364.468H137.295C149.122 364.89 153.369 354.788 154.015 349.684V335.253C153.874 332.296 152.313 329.093 151.551 327.861C147.608 321.243 140.874 320.058 137.999 320.293C136.063 321.349 136.884 323.343 137.999 323.812C146.869 324.375 149.908 331.674 150.319 335.253V347.924C150.178 350.459 149.908 351.796 149.791 352.148C146.693 359.61 140.17 361.007 137.295 360.772H130.431C124.799 360.913 122.57 360.361 122.159 360.068C115.964 357.815 114.063 351.62 113.887 348.804V335.428Z" fill="#A20021" fill-opacity="0.16"/>
<path d="M129.904 319.416C129.763 318.29 130.784 317.891 131.312 317.832H133.424C134.55 317.973 134.832 318.947 134.832 319.416L134.304 324.696C134.304 325.541 133.717 325.869 133.424 325.928H131.312C130.608 325.787 130.314 325.048 130.256 324.696C130.197 323.405 130.045 320.542 129.904 319.416Z" fill="#A20021" fill-opacity="0.16"/>
<path d="M118.109 335.605C120.644 326.171 128.435 327.919 132.013 329.973H132.717C140.461 325.045 145.917 331.733 145.917 336.421V351.445C145.776 355.105 142.221 356.255 140.461 356.373V336.421C139.229 332.085 135.005 334.021 134.829 336.421V355.317C134.829 356.161 134.125 356.373 133.773 356.373H130.253C129.549 356.232 129.373 355.61 129.373 355.317V336.421C127.789 331.909 123.565 334.373 123.741 336.661V356.373C119.517 356.232 118.227 353.029 118.109 351.445V335.605Z" fill="#A20021" fill-opacity="0.16"/>
<path d="M114.161 277.6C115.428 268.167 123.371 265.926 127.185 265.984C129.297 265.28 128.593 262.64 127.185 262.464C113.95 263.028 110.641 272.672 110.641 277.424L110.465 290.976C111.591 302.24 120.555 305.994 124.897 306.464L130.704 306.64H137.568C149.395 307.062 153.643 296.96 154.288 291.856V277.424C154.147 274.468 152.587 271.265 151.824 270.033C147.882 263.415 141.147 262.23 138.272 262.465C136.336 263.521 137.158 265.515 138.272 265.984C147.143 266.547 150.181 273.846 150.592 277.424V290.096C150.451 292.631 150.181 293.968 150.064 294.32C146.967 301.782 140.443 303.179 137.568 302.944H130.704C125.073 303.085 122.843 302.533 122.433 302.24C116.238 299.987 114.337 293.792 114.161 290.976V277.6Z" fill="#A20021" fill-opacity="0.16"/>
<path d="M130.177 261.584C130.036 260.458 131.057 260.059 131.585 260H133.697C134.823 260.141 135.105 261.115 135.105 261.584L134.577 266.864C134.577 267.709 133.99 268.037 133.697 268.096H131.585C130.881 267.955 130.588 267.216 130.529 266.864C130.47 265.573 130.318 262.71 130.177 261.584Z" fill="#A20021" fill-opacity="0.16"/>
<path d="M118.383 277.777C120.917 268.343 128.708 270.091 132.287 272.145H132.991C140.734 267.217 146.19 273.905 146.19 278.593V293.617C146.05 297.277 142.494 298.427 140.734 298.544V278.593C139.502 274.257 135.279 276.193 135.103 278.593V297.488C135.103 298.333 134.399 298.544 134.047 298.544H130.527C129.823 298.404 129.647 297.782 129.647 297.488V278.593C128.063 274.081 123.839 276.545 124.015 278.833V298.544C119.791 298.404 118.5 295.201 118.383 293.617V277.777Z" fill="#A20021" fill-opacity="0.16"/>
<path d="M114.161 219.6C115.428 210.167 123.371 207.926 127.185 207.984C129.297 207.28 128.593 204.64 127.185 204.464C113.95 205.028 110.641 214.672 110.641 219.424L110.465 232.976C111.591 244.24 120.555 247.994 124.897 248.464L130.704 248.64H137.568C149.395 249.062 153.643 238.96 154.288 233.856V219.424C154.147 216.468 152.587 213.265 151.824 212.033C147.882 205.415 141.147 204.23 138.272 204.465C136.336 205.521 137.158 207.515 138.272 207.984C147.143 208.547 150.181 215.846 150.592 219.424V232.096C150.451 234.631 150.181 235.968 150.064 236.32C146.967 243.782 140.443 245.179 137.568 244.944H130.704C125.073 245.085 122.843 244.533 122.433 244.24C116.238 241.987 114.337 235.792 114.161 232.976V219.6Z" fill="#A20021" fill-opacity="0.16"/>
<path d="M130.177 203.584C130.036 202.458 131.057 202.059 131.585 202H133.697C134.823 202.141 135.105 203.115 135.105 203.584L134.577 208.864C134.577 209.709 133.99 210.037 133.697 210.096H131.585C130.881 209.955 130.588 209.216 130.529 208.864C130.47 207.573 130.318 204.71 130.177 203.584Z" fill="#A20021" fill-opacity="0.16"/>
<path d="M118.383 219.777C120.917 210.343 128.708 212.091 132.287 214.145H132.991C140.734 209.217 146.19 215.905 146.19 220.593V235.617C146.05 239.277 142.494 240.427 140.734 240.544V220.593C139.502 216.257 135.279 218.193 135.103 220.593V239.488C135.103 240.333 134.399 240.544 134.047 240.544H130.527C129.823 240.404 129.647 239.782 129.647 239.488V220.593C128.063 216.081 123.839 218.545 124.015 220.833V240.544C119.791 240.404 118.5 237.201 118.383 235.617V219.777Z" fill="#A20021" fill-opacity="0.16"/>
<path d="M114.161 161.6C115.428 152.167 123.371 149.926 127.185 149.984C129.297 149.28 128.593 146.64 127.185 146.464C113.95 147.028 110.641 156.672 110.641 161.424L110.465 174.976C111.591 186.24 120.555 189.994 124.897 190.464L130.704 190.64H137.568C149.395 191.062 153.643 180.96 154.288 175.856V161.424C154.147 158.468 152.587 155.265 151.824 154.033C147.882 147.415 141.147 146.23 138.272 146.465C136.336 147.521 137.158 149.515 138.272 149.984C147.143 150.547 150.181 157.846 150.592 161.424V174.096C150.451 176.631 150.181 177.968 150.064 178.32C146.967 185.782 140.443 187.179 137.568 186.944H130.704C125.073 187.085 122.843 186.533 122.433 186.24C116.238 183.987 114.337 177.792 114.161 174.976V161.6Z" fill="#A20021" fill-opacity="0.16"/>
<path d="M130.177 145.584C130.036 144.458 131.057 144.059 131.585 144H133.697C134.823 144.141 135.105 145.115 135.105 145.584L134.577 150.864C134.577 151.709 133.99 152.037 133.697 152.096H131.585C130.881 151.955 130.588 151.216 130.529 150.864C130.47 149.573 130.318 146.71 130.177 145.584Z" fill="#A20021" fill-opacity="0.16"/>
<path d="M118.383 161.777C120.917 152.343 128.708 154.091 132.287 156.145H132.991C140.734 151.217 146.19 157.905 146.19 162.593V177.617C146.05 181.277 142.494 182.427 140.734 182.544V162.593C139.502 158.257 135.279 160.193 135.103 162.593V181.488C135.103 182.333 134.399 182.544 134.047 182.544H130.527C129.823 182.404 129.647 181.782 129.647 181.488V162.593C128.063 158.081 123.839 160.545 124.015 162.833V182.544C119.791 182.404 118.5 179.201 118.383 177.617V161.777Z" fill="#A20021" fill-opacity="0.16"/>
<path d="M114.161 103.6C115.428 94.1667 123.371 91.9257 127.185 91.9843C129.297 91.2803 128.593 88.6403 127.185 88.4643C113.95 89.0275 110.641 98.6721 110.641 103.424L110.465 116.976C111.591 128.24 120.555 131.994 124.897 132.464L130.704 132.64H137.568C149.395 133.062 153.643 122.96 154.288 117.856V103.424C154.147 100.468 152.587 97.2646 151.824 96.0325C147.882 89.415 141.147 88.23 138.272 88.4646C136.336 89.5206 137.158 91.5151 138.272 91.9843C147.143 92.5473 150.181 99.8456 150.592 103.424V116.096C150.451 118.631 150.181 119.968 150.064 120.32C146.967 127.782 140.443 129.179 137.568 128.944H130.704C125.073 129.085 122.843 128.533 122.433 128.24C116.238 125.987 114.337 119.792 114.161 116.976V103.6Z" fill="#A20021" fill-opacity="0.16"/>
<path d="M130.177 87.584C130.036 86.4576 131.057 86.0587 131.585 86H133.697C134.823 86.1408 135.105 87.1146 135.105 87.584L134.577 92.8639C134.577 93.7087 133.99 94.0372 133.697 94.0959H131.585C130.881 93.9551 130.588 93.2159 130.529 92.8639C130.47 91.5732 130.318 88.7104 130.177 87.584Z" fill="#A20021" fill-opacity="0.16"/>
<path d="M118.383 103.777C120.917 94.3431 128.708 96.0913 132.287 98.1446H132.991C140.734 93.2171 146.19 99.9051 146.19 104.593V119.617C146.05 123.277 142.494 124.427 140.734 124.544V104.593C139.502 100.257 135.279 102.193 135.103 104.593V123.488C135.103 124.333 134.399 124.544 134.047 124.544H130.527C129.823 124.404 129.647 123.782 129.647 123.488V104.593C128.063 100.081 123.839 102.545 124.015 104.833V124.544C119.791 124.404 118.5 121.201 118.383 119.617V103.777Z" fill="#A20021" fill-opacity="0.16"/>
<path d="M114.161 45.6001C115.428 36.1667 123.371 33.9257 127.185 33.9843C129.297 33.2803 128.593 30.6403 127.185 30.4643C113.95 31.0275 110.641 40.6721 110.641 45.4241L110.465 58.9762C111.591 70.2402 120.555 73.9944 124.897 74.4636L130.704 74.6395H137.568C149.395 75.0619 153.643 64.9597 154.288 59.8558V45.4244C154.147 42.4679 152.587 39.2646 151.824 38.0325C147.882 31.415 141.147 30.23 138.272 30.4646C136.336 31.5206 137.158 33.5151 138.272 33.9843C147.143 34.5473 150.181 41.8456 150.592 45.4244V58.0962C150.451 60.6305 150.181 61.9681 150.064 62.3201C146.967 69.7824 140.443 71.1786 137.568 70.9439H130.704C125.073 71.0847 122.843 70.5333 122.433 70.24C116.238 67.9872 114.337 61.7921 114.161 58.9762V45.6001Z" fill="#A20021" fill-opacity="0.16"/>
<path d="M130.177 29.584C130.036 28.4576 131.057 28.0587 131.585 28H133.697C134.823 28.1408 135.105 29.1146 135.105 29.584L134.577 34.8639C134.577 35.7087 133.99 36.0372 133.697 36.0959H131.585C130.881 35.9551 130.588 35.2159 130.529 34.8639C130.47 33.5732 130.318 30.7104 130.177 29.584Z" fill="#A20021" fill-opacity="0.16"/>
<path d="M118.383 45.7765C120.917 36.3431 128.708 38.0913 132.287 40.1446H132.991C140.734 35.2171 146.19 41.9051 146.19 46.5927V61.6166C146.05 65.2773 142.494 66.4271 140.734 66.5445V46.5927C139.502 42.2569 135.279 44.1929 135.103 46.5927V65.4885C135.103 66.3333 134.399 66.5445 134.047 66.5445H130.527C129.823 66.4037 129.647 65.7818 129.647 65.4885V46.5927C128.063 42.0809 123.839 44.5449 124.015 46.8328V66.5445C119.791 66.4037 118.5 63.2005 118.383 61.6166V45.7765Z" fill="#A20021" fill-opacity="0.16"/>
<path d="M114.161 -12.3999C115.428 -21.8333 123.371 -24.0743 127.185 -24.0157C129.297 -24.7197 128.593 -27.3597 127.185 -27.5357C113.95 -26.9725 110.641 -17.3279 110.641 -12.5759L110.465 0.976154C111.591 12.2402 120.555 15.9944 124.897 16.4636L130.704 16.6395H137.568C149.395 17.0619 153.643 6.95972 154.288 1.8558V-12.5756C154.147 -15.5321 152.587 -18.7354 151.824 -19.9675C147.882 -26.585 141.147 -27.77 138.272 -27.5354C136.336 -26.4794 137.158 -24.4849 138.272 -24.0157C147.143 -23.4527 150.181 -16.1544 150.592 -12.5756V0.0961704C150.451 2.63053 150.181 3.9681 150.064 4.3201C146.967 11.7824 140.443 13.1786 137.568 12.9439H130.704C125.073 13.0847 122.843 12.5333 122.433 12.24C116.238 9.9872 114.337 3.79211 114.161 0.976154V-12.3999Z" fill="#A20021" fill-opacity="0.16"/>
<path d="M118.383 -12.2235C120.917 -21.6569 128.708 -19.9087 132.287 -17.8554H132.991C140.734 -22.7829 146.19 -16.0949 146.19 -11.4073V3.61656C146.05 7.2773 142.494 8.42715 140.734 8.54448V-11.4073C139.502 -15.7431 135.279 -13.8071 135.103 -11.4073V7.48849C135.103 8.33328 134.399 8.54448 134.047 8.54448H130.527C129.823 8.40368 129.647 7.78182 129.647 7.48849V-11.4073C128.063 -15.9191 123.839 -13.4551 124.015 -11.1672V8.54448C119.791 8.40368 118.5 5.20053 118.383 3.61656V-12.2235Z" fill="#A20021" fill-opacity="0.16"/>
<path d="M114.161 392.6C115.428 383.167 123.371 380.926 127.185 380.984C129.297 380.28 128.593 377.64 127.185 377.464C113.95 378.028 110.641 387.672 110.641 392.424L110.465 405.976C111.591 417.24 120.555 420.994 124.897 421.464L130.704 421.64H137.568C149.395 422.062 153.643 411.96 154.288 406.856V392.424C154.147 389.468 152.587 386.265 151.824 385.033C147.882 378.415 141.147 377.23 138.272 377.465C136.336 378.521 137.158 380.515 138.272 380.984C147.143 381.547 150.181 388.846 150.592 392.424V405.096C150.451 407.631 150.181 408.968 150.064 409.32C146.967 416.782 140.443 418.179 137.568 417.944H130.704C125.073 418.085 122.843 417.533 122.433 417.24C116.238 414.987 114.337 408.792 114.161 405.976V392.6Z" fill="#A20021" fill-opacity="0.16"/>
<path d="M130.177 376.584C130.036 375.458 131.057 375.059 131.585 375H133.697C134.823 375.141 135.105 376.115 135.105 376.584L134.577 381.864C134.577 382.709 133.99 383.037 133.697 383.096H131.585C130.881 382.955 130.588 382.216 130.529 381.864C130.47 380.573 130.318 377.71 130.177 376.584Z" fill="#A20021" fill-opacity="0.16"/>
<path d="M118.383 392.777C120.917 383.343 128.708 385.091 132.287 387.145H132.991C140.734 382.217 146.19 388.905 146.19 393.593V408.617C146.05 412.277 142.494 413.427 140.734 413.544V393.593C139.502 389.257 135.279 391.193 135.103 393.593V412.488C135.103 413.333 134.399 413.544 134.047 413.544H130.527C129.823 413.404 129.647 412.782 129.647 412.488V393.593C128.063 389.081 123.839 391.545 124.015 393.833V413.544C119.791 413.404 118.5 410.201 118.383 408.617V392.777Z" fill="#A20021" fill-opacity="0.16"/>
<path d="M168.985 366.428C170.252 356.995 178.196 354.754 182.009 354.812C184.121 354.108 183.417 351.468 182.009 351.292C168.774 351.856 165.465 361.5 165.465 366.252L165.289 379.804C166.415 391.068 175.38 394.823 179.721 395.292L185.529 395.468H192.393C204.22 395.89 208.467 385.788 209.112 380.684V366.253C208.972 363.296 207.411 360.093 206.648 358.861C202.706 352.243 195.971 351.058 193.097 351.293C191.161 352.349 191.982 354.343 193.097 354.812C201.967 355.375 205.006 362.674 205.416 366.253V378.924C205.276 381.459 205.006 382.796 204.888 383.148C201.791 390.61 195.267 392.007 192.393 391.772H185.529C179.897 391.913 177.668 391.361 177.257 391.068C171.062 388.815 169.161 382.62 168.985 379.804V366.428Z" fill="#A20021" fill-opacity="0.16"/>
<path d="M185.001 350.416C184.861 349.29 185.881 348.891 186.409 348.832H188.521C189.648 348.973 189.929 349.947 189.929 350.416L189.401 355.696C189.401 356.541 188.815 356.869 188.521 356.928H186.409C185.706 356.787 185.412 356.048 185.353 355.696C185.295 354.405 185.142 351.542 185.001 350.416Z" fill="#A20021" fill-opacity="0.16"/>
<path d="M173.211 366.605C175.745 357.171 183.536 358.919 187.115 360.973H187.819C195.563 356.045 201.018 362.733 201.018 367.421V382.445C200.878 386.105 197.323 387.255 195.563 387.373V367.421C194.331 363.085 190.107 365.021 189.931 367.421V386.317C189.931 387.161 189.227 387.373 188.875 387.373H185.355C184.651 387.232 184.475 386.61 184.475 386.317V367.421C182.891 362.909 178.667 365.373 178.843 367.661V387.373C174.619 387.232 173.328 384.029 173.211 382.445V366.605Z" fill="#A20021" fill-opacity="0.16"/>
<path d="M169.258 308.6C170.526 299.167 178.469 296.926 182.282 296.984C184.394 296.28 183.69 293.64 182.282 293.464C169.047 294.028 165.738 303.672 165.738 308.424L165.562 321.976C166.689 333.24 175.653 336.994 179.994 337.464L185.802 337.64H192.666C204.493 338.062 208.74 327.96 209.386 322.856V308.424C209.245 305.468 207.684 302.265 206.922 301.033C202.979 294.415 196.245 293.23 193.37 293.465C191.434 294.521 192.255 296.515 193.37 296.984C202.24 297.547 205.279 304.846 205.69 308.424V321.096C205.549 323.631 205.279 324.968 205.162 325.32C202.064 332.782 195.541 334.179 192.666 333.944H185.802C180.17 334.085 177.941 333.533 177.53 333.24C171.335 330.987 169.434 324.792 169.258 321.976V308.6Z" fill="#A20021" fill-opacity="0.16"/>
<path d="M185.275 292.584C185.134 291.458 186.155 291.059 186.683 291H188.795C189.921 291.141 190.203 292.115 190.203 292.584L189.675 297.864C189.675 298.709 189.088 299.037 188.795 299.096H186.683C185.979 298.955 185.686 298.216 185.627 297.864C185.568 296.573 185.416 293.71 185.275 292.584Z" fill="#A20021" fill-opacity="0.16"/>
<path d="M173.484 308.777C176.019 299.343 183.81 301.091 187.388 303.145H188.092C195.836 298.217 201.292 304.905 201.292 309.593V324.617C201.151 328.277 197.596 329.427 195.836 329.544V309.593C194.604 305.257 190.38 307.193 190.204 309.593V328.488C190.204 329.333 189.5 329.544 189.148 329.544H185.628C184.924 329.404 184.748 328.782 184.748 328.488V309.593C183.164 305.081 178.94 307.545 179.116 309.833V329.544C174.892 329.404 173.602 326.201 173.484 324.617V308.777Z" fill="#A20021" fill-opacity="0.16"/>
<path d="M169.258 250.6C170.526 241.167 178.469 238.926 182.282 238.984C184.394 238.28 183.69 235.64 182.282 235.464C169.047 236.028 165.738 245.672 165.738 250.424L165.562 263.976C166.689 275.24 175.653 278.994 179.994 279.464L185.802 279.64H192.666C204.493 280.062 208.74 269.96 209.386 264.856V250.424C209.245 247.468 207.684 244.265 206.922 243.033C202.979 236.415 196.245 235.23 193.37 235.465C191.434 236.521 192.255 238.515 193.37 238.984C202.24 239.547 205.279 246.846 205.69 250.424V263.096C205.549 265.631 205.279 266.968 205.162 267.32C202.064 274.782 195.541 276.179 192.666 275.944H185.802C180.17 276.085 177.941 275.533 177.53 275.24C171.335 272.987 169.434 266.792 169.258 263.976V250.6Z" fill="#A20021" fill-opacity="0.16"/>
<path d="M185.275 234.584C185.134 233.458 186.155 233.059 186.683 233H188.795C189.921 233.141 190.203 234.115 190.203 234.584L189.675 239.864C189.675 240.709 189.088 241.037 188.795 241.096H186.683C185.979 240.955 185.686 240.216 185.627 239.864C185.568 238.573 185.416 235.71 185.275 234.584Z" fill="#A20021" fill-opacity="0.16"/>
<path d="M173.484 250.777C176.019 241.343 183.81 243.091 187.388 245.145H188.092C195.836 240.217 201.292 246.905 201.292 251.593V266.617C201.151 270.277 197.596 271.427 195.836 271.544V251.593C194.604 247.257 190.38 249.193 190.204 251.593V270.488C190.204 271.333 189.5 271.544 189.148 271.544H185.628C184.924 271.404 184.748 270.782 184.748 270.488V251.593C183.164 247.081 178.94 249.545 179.116 251.833V271.544C174.892 271.404 173.602 268.201 173.484 266.617V250.777Z" fill="#A20021" fill-opacity="0.16"/>
<path d="M169.258 192.6C170.526 183.167 178.469 180.926 182.282 180.984C184.394 180.28 183.69 177.64 182.282 177.464C169.047 178.028 165.738 187.672 165.738 192.424L165.562 205.976C166.689 217.24 175.653 220.994 179.994 221.464L185.802 221.64H192.666C204.493 222.062 208.74 211.96 209.386 206.856V192.424C209.245 189.468 207.684 186.265 206.922 185.033C202.979 178.415 196.245 177.23 193.37 177.465C191.434 178.521 192.255 180.515 193.37 180.984C202.24 181.547 205.279 188.846 205.69 192.424V205.096C205.549 207.631 205.279 208.968 205.162 209.32C202.064 216.782 195.541 218.179 192.666 217.944H185.802C180.17 218.085 177.941 217.533 177.53 217.24C171.335 214.987 169.434 208.792 169.258 205.976V192.6Z" fill="#A20021" fill-opacity="0.16"/>
<path d="M185.275 176.584C185.134 175.458 186.155 175.059 186.683 175H188.795C189.921 175.141 190.203 176.115 190.203 176.584L189.675 181.864C189.675 182.709 189.088 183.037 188.795 183.096H186.683C185.979 182.955 185.686 182.216 185.627 181.864C185.568 180.573 185.416 177.71 185.275 176.584Z" fill="#A20021" fill-opacity="0.16"/>
<path d="M173.484 192.777C176.019 183.343 183.81 185.091 187.388 187.145H188.092C195.836 182.217 201.292 188.905 201.292 193.593V208.617C201.151 212.277 197.596 213.427 195.836 213.544V193.593C194.604 189.257 190.38 191.193 190.204 193.593V212.488C190.204 213.333 189.5 213.544 189.148 213.544H185.628C184.924 213.404 184.748 212.782 184.748 212.488V193.593C183.164 189.081 178.94 191.545 179.116 193.833V213.544C174.892 213.404 173.602 210.201 173.484 208.617V192.777Z" fill="#A20021" fill-opacity="0.16"/>
<path d="M169.258 134.6C170.526 125.167 178.469 122.926 182.282 122.984C184.394 122.28 183.69 119.64 182.282 119.464C169.047 120.028 165.738 129.672 165.738 134.424L165.562 147.976C166.689 159.24 175.653 162.994 179.994 163.464L185.802 163.64H192.666C204.493 164.062 208.74 153.96 209.386 148.856V134.424C209.245 131.468 207.684 128.265 206.922 127.033C202.979 120.415 196.245 119.23 193.37 119.465C191.434 120.521 192.255 122.515 193.37 122.984C202.24 123.547 205.279 130.846 205.69 134.424V147.096C205.549 149.631 205.279 150.968 205.162 151.32C202.064 158.782 195.541 160.179 192.666 159.944H185.802C180.17 160.085 177.941 159.533 177.53 159.24C171.335 156.987 169.434 150.792 169.258 147.976V134.6Z" fill="#A20021" fill-opacity="0.16"/>
<path d="M185.275 118.584C185.134 117.458 186.155 117.059 186.683 117H188.795C189.921 117.141 190.203 118.115 190.203 118.584L189.675 123.864C189.675 124.709 189.088 125.037 188.795 125.096H186.683C185.979 124.955 185.686 124.216 185.627 123.864C185.568 122.573 185.416 119.71 185.275 118.584Z" fill="#A20021" fill-opacity="0.16"/>
<path d="M173.484 134.777C176.019 125.343 183.81 127.091 187.388 129.145H188.092C195.836 124.217 201.292 130.905 201.292 135.593V150.617C201.151 154.277 197.596 155.427 195.836 155.544V135.593C194.604 131.257 190.38 133.193 190.204 135.593V154.488C190.204 155.333 189.5 155.544 189.148 155.544H185.628C184.924 155.404 184.748 154.782 184.748 154.488V135.593C183.164 131.081 178.94 133.545 179.116 135.833V155.544C174.892 155.404 173.602 152.201 173.484 150.617V134.777Z" fill="#A20021" fill-opacity="0.16"/>
<path d="M169.258 76.6001C170.526 67.1667 178.469 64.9257 182.282 64.9843C184.394 64.2803 183.69 61.6403 182.282 61.4643C169.047 62.0275 165.738 71.6721 165.738 76.4241L165.562 89.9762C166.689 101.24 175.653 104.994 179.994 105.464L185.802 105.64H192.666C204.493 106.062 208.74 95.9597 209.386 90.8558V76.4244C209.245 73.4679 207.684 70.2646 206.922 69.0325C202.979 62.415 196.245 61.23 193.37 61.4646C191.434 62.5206 192.255 64.5151 193.37 64.9843C202.24 65.5473 205.279 72.8456 205.69 76.4244V89.0962C205.549 91.6305 205.279 92.9681 205.162 93.3201C202.064 100.782 195.541 102.179 192.666 101.944H185.802C180.17 102.085 177.941 101.533 177.53 101.24C171.335 98.9872 169.434 92.7921 169.258 89.9762V76.6001Z" fill="#A20021" fill-opacity="0.16"/>
<path d="M185.275 60.584C185.134 59.4576 186.155 59.0587 186.683 59H188.795C189.921 59.1408 190.203 60.1146 190.203 60.584L189.675 65.8639C189.675 66.7087 189.088 67.0372 188.795 67.0959H186.683C185.979 66.9551 185.686 66.2159 185.627 65.8639C185.568 64.5732 185.416 61.7104 185.275 60.584Z" fill="#A20021" fill-opacity="0.16"/>
<path d="M173.484 76.7765C176.019 67.3431 183.81 69.0913 187.388 71.1446H188.092C195.836 66.2171 201.292 72.9051 201.292 77.5927V92.6166C201.151 96.2773 197.596 97.4271 195.836 97.5445V77.5927C194.604 73.2569 190.38 75.1929 190.204 77.5927V96.4885C190.204 97.3333 189.5 97.5445 189.148 97.5445H185.628C184.924 97.4037 184.748 96.7818 184.748 96.4885V77.5927C183.164 73.0809 178.94 75.5449 179.116 77.8328V97.5445C174.892 97.4037 173.602 94.2005 173.484 92.6166V76.7765Z" fill="#A20021" fill-opacity="0.16"/>
<path d="M169.258 18.6001C170.526 9.16669 178.469 6.92566 182.282 6.98433C184.394 6.28026 183.69 3.64031 182.282 3.46431C169.047 4.0275 165.738 13.6721 165.738 18.4241L165.562 31.9762C166.689 43.2402 175.653 46.9944 179.994 47.4636L185.802 47.6395H192.666C204.493 48.0619 208.74 37.9597 209.386 32.8558V18.4244C209.245 15.4679 207.684 12.2646 206.922 11.0325C202.979 4.41503 196.245 3.22999 193.37 3.46465C191.434 4.52063 192.255 6.51509 193.37 6.98433C202.24 7.54731 205.279 14.8456 205.69 18.4244V31.0962C205.549 33.6305 205.279 34.9681 205.162 35.3201C202.064 42.7824 195.541 44.1786 192.666 43.9439H185.802C180.17 44.0847 177.941 43.5333 177.53 43.24C171.335 40.9872 169.434 34.7921 169.258 31.9762V18.6001Z" fill="#A20021" fill-opacity="0.16"/>
<path d="M185.275 2.58397C185.134 1.45759 186.155 1.05867 186.683 1L188.795 1C189.921 1.1408 190.203 2.11465 190.203 2.58397L189.675 7.86388C189.675 8.70867 189.088 9.03719 188.795 9.09586H186.683C185.979 8.95506 185.686 8.21587 185.627 7.86388C185.568 6.57324 185.416 3.71035 185.275 2.58397Z" fill="#A20021" fill-opacity="0.16"/>
<path d="M173.484 18.7765C176.019 9.34311 183.81 11.0913 187.388 13.1446H188.092C195.836 8.21706 201.292 14.9051 201.292 19.5927V34.6166C201.151 38.2773 197.596 39.4271 195.836 39.5445V19.5927C194.604 15.2569 190.38 17.1929 190.204 19.5927V38.4885C190.204 39.3333 189.5 39.5445 189.148 39.5445H185.628C184.924 39.4037 184.748 38.7818 184.748 38.4885V19.5927C183.164 15.0809 178.94 17.5449 179.116 19.8328V39.5445C174.892 39.4037 173.602 36.2005 173.484 34.6166V18.7765Z" fill="#A20021" fill-opacity="0.16"/>
<path d="M169.258 423.6C170.526 414.167 178.469 411.926 182.282 411.984C184.394 411.28 183.69 408.64 182.282 408.464C169.047 409.028 165.738 418.672 165.738 423.424L165.562 436.976C166.689 448.24 175.653 451.994 179.994 452.464L185.802 452.64H192.666C204.493 453.062 208.74 442.96 209.386 437.856V423.424C209.245 420.468 207.684 417.265 206.922 416.033C202.979 409.415 196.245 408.23 193.37 408.465C191.434 409.521 192.255 411.515 193.37 411.984C202.24 412.547 205.279 419.846 205.69 423.424V436.096C205.549 438.631 205.279 439.968 205.162 440.32C202.064 447.782 195.541 449.179 192.666 448.944H185.802C180.17 449.085 177.941 448.533 177.53 448.24C171.335 445.987 169.434 439.792 169.258 436.976V423.6Z" fill="#A20021" fill-opacity="0.16"/>
<path d="M185.275 407.584C185.134 406.458 186.155 406.059 186.683 406H188.795C189.921 406.141 190.203 407.115 190.203 407.584L189.675 412.864C189.675 413.709 189.088 414.037 188.795 414.096H186.683C185.979 413.955 185.686 413.216 185.627 412.864C185.568 411.573 185.416 408.71 185.275 407.584Z" fill="#A20021" fill-opacity="0.16"/>
<path d="M173.484 423.777C176.019 414.343 183.81 416.091 187.388 418.145H188.092C195.836 413.217 201.292 419.905 201.292 424.593V439.617C201.151 443.277 197.596 444.427 195.836 444.544V424.593C194.604 420.257 190.38 422.193 190.204 424.593V443.488C190.204 444.333 189.5 444.544 189.148 444.544H185.628C184.924 444.404 184.748 443.782 184.748 443.488V424.593C183.164 420.081 178.94 422.545 179.116 424.833V444.544C174.892 444.404 173.602 441.201 173.484 439.617V423.777Z" fill="#A20021" fill-opacity="0.16"/>
<path d="M224.079 335.428C225.346 325.995 233.289 323.754 237.103 323.812C239.214 323.108 238.51 320.468 237.103 320.292C223.868 320.856 220.559 330.5 220.559 335.252L220.383 348.804C221.509 360.068 230.473 363.823 234.815 364.292L240.622 364.468H247.486C259.313 364.89 263.561 354.788 264.206 349.684V335.253C264.065 332.296 262.505 329.093 261.742 327.861C257.8 321.243 251.065 320.058 248.19 320.293C246.254 321.349 247.076 323.343 248.19 323.812C257.061 324.375 260.099 331.674 260.51 335.253V347.924C260.369 350.459 260.099 351.796 259.982 352.148C256.885 359.61 250.361 361.007 247.486 360.772H240.622C234.991 360.913 232.761 360.361 232.351 360.068C226.156 357.815 224.255 351.62 224.079 348.804V335.428Z" fill="#A20021" fill-opacity="0.16"/>
<path d="M240.095 319.416C239.954 318.29 240.975 317.891 241.503 317.832H243.615C244.741 317.973 245.023 318.947 245.023 319.416L244.495 324.696C244.495 325.541 243.908 325.869 243.615 325.928H241.503C240.799 325.787 240.506 325.048 240.447 324.696C240.388 323.405 240.236 320.542 240.095 319.416Z" fill="#A20021" fill-opacity="0.16"/>
<path d="M228.305 335.605C230.839 326.171 238.63 327.919 242.208 329.973H242.912C250.656 325.045 256.112 331.733 256.112 336.421V351.445C255.971 355.105 252.416 356.255 250.656 356.373V336.421C249.424 332.085 245.2 334.021 245.024 336.421V355.317C245.024 356.161 244.32 356.373 243.968 356.373H240.448C239.744 356.232 239.568 355.61 239.568 355.317V336.421C237.985 331.909 233.761 334.373 233.937 336.661V356.373C229.713 356.232 228.422 353.029 228.305 351.445V335.605Z" fill="#A20021" fill-opacity="0.16"/>
<path d="M224.352 277.6C225.619 268.167 233.563 265.926 237.376 265.984C239.488 265.28 238.784 262.64 237.376 262.464C224.141 263.028 220.832 272.672 220.832 277.424L220.656 290.976C221.783 302.24 230.747 305.994 235.088 306.464L240.896 306.64H247.76C259.587 307.062 263.834 296.96 264.479 291.856V277.424C264.339 274.468 262.778 271.265 262.016 270.033C258.073 263.415 251.338 262.23 248.464 262.465C246.528 263.521 247.349 265.515 248.464 265.984C257.334 266.547 260.373 273.846 260.784 277.424V290.096C260.643 292.631 260.373 293.968 260.256 294.32C257.158 301.782 250.634 303.179 247.76 302.944H240.896C235.264 303.085 233.035 302.533 232.624 302.24C226.429 299.987 224.528 293.792 224.352 290.976V277.6Z" fill="#A20021" fill-opacity="0.16"/>
<path d="M240.369 261.584C240.228 260.458 241.249 260.059 241.777 260H243.888C245.015 260.141 245.296 261.115 245.296 261.584L244.768 266.864C244.768 267.709 244.182 268.037 243.888 268.096H241.777C241.073 267.955 240.779 267.216 240.721 266.864C240.662 265.573 240.509 262.71 240.369 261.584Z" fill="#A20021" fill-opacity="0.16"/>
<path d="M228.578 277.777C231.112 268.343 238.903 270.091 242.482 272.145H243.186C250.93 267.217 256.386 273.905 256.386 278.593V293.617C256.245 297.277 252.69 298.427 250.93 298.544V278.593C249.698 274.257 245.474 276.193 245.298 278.593V297.488C245.298 298.333 244.594 298.544 244.242 298.544H240.722C240.018 298.404 239.842 297.782 239.842 297.488V278.593C238.258 274.081 234.034 276.545 234.21 278.833V298.544C229.986 298.404 228.695 295.201 228.578 293.617V277.777Z" fill="#A20021" fill-opacity="0.16"/>
<path d="M224.352 219.6C225.619 210.167 233.563 207.926 237.376 207.984C239.488 207.28 238.784 204.64 237.376 204.464C224.141 205.028 220.832 214.672 220.832 219.424L220.656 232.976C221.783 244.24 230.747 247.994 235.088 248.464L240.896 248.64H247.76C259.587 249.062 263.834 238.96 264.479 233.856V219.424C264.339 216.468 262.778 213.265 262.016 212.033C258.073 205.415 251.338 204.23 248.464 204.465C246.528 205.521 247.349 207.515 248.464 207.984C257.334 208.547 260.373 215.846 260.784 219.424V232.096C260.643 234.631 260.373 235.968 260.256 236.32C257.158 243.782 250.634 245.179 247.76 244.944H240.896C235.264 245.085 233.035 244.533 232.624 244.24C226.429 241.987 224.528 235.792 224.352 232.976V219.6Z" fill="#A20021" fill-opacity="0.16"/>
<path d="M240.369 203.584C240.228 202.458 241.249 202.059 241.777 202H243.888C245.015 202.141 245.296 203.115 245.296 203.584L244.768 208.864C244.768 209.709 244.182 210.037 243.888 210.096H241.777C241.073 209.955 240.779 209.216 240.721 208.864C240.662 207.573 240.509 204.71 240.369 203.584Z" fill="#A20021" fill-opacity="0.16"/>
<path d="M228.578 219.777C231.112 210.343 238.903 212.091 242.482 214.145H243.186C250.93 209.217 256.386 215.905 256.386 220.593V235.617C256.245 239.277 252.69 240.427 250.93 240.544V220.593C249.698 216.257 245.474 218.193 245.298 220.593V239.488C245.298 240.333 244.594 240.544 244.242 240.544H240.722C240.018 240.404 239.842 239.782 239.842 239.488V220.593C238.258 216.081 234.034 218.545 234.21 220.833V240.544C229.986 240.404 228.695 237.201 228.578 235.617V219.777Z" fill="#A20021" fill-opacity="0.16"/>
<path d="M224.352 161.6C225.619 152.167 233.563 149.926 237.376 149.984C239.488 149.28 238.784 146.64 237.376 146.464C224.141 147.028 220.832 156.672 220.832 161.424L220.656 174.976C221.783 186.24 230.747 189.994 235.088 190.464L240.896 190.64H247.76C259.587 191.062 263.834 180.96 264.479 175.856V161.424C264.339 158.468 262.778 155.265 262.016 154.033C258.073 147.415 251.338 146.23 248.464 146.465C246.528 147.521 247.349 149.515 248.464 149.984C257.334 150.547 260.373 157.846 260.784 161.424V174.096C260.643 176.631 260.373 177.968 260.256 178.32C257.158 185.782 250.634 187.179 247.76 186.944H240.896C235.264 187.085 233.035 186.533 232.624 186.24C226.429 183.987 224.528 177.792 224.352 174.976V161.6Z" fill="#A20021" fill-opacity="0.16"/>
<path d="M240.369 145.584C240.228 144.458 241.249 144.059 241.777 144H243.888C245.015 144.141 245.296 145.115 245.296 145.584L244.768 150.864C244.768 151.709 244.182 152.037 243.888 152.096H241.777C241.073 151.955 240.779 151.216 240.721 150.864C240.662 149.573 240.509 146.71 240.369 145.584Z" fill="#A20021" fill-opacity="0.16"/>
<path d="M228.578 161.777C231.112 152.343 238.903 154.091 242.482 156.145H243.186C250.93 151.217 256.386 157.905 256.386 162.593V177.617C256.245 181.277 252.69 182.427 250.93 182.544V162.593C249.698 158.257 245.474 160.193 245.298 162.593V181.488C245.298 182.333 244.594 182.544 244.242 182.544H240.722C240.018 182.404 239.842 181.782 239.842 181.488V162.593C238.258 158.081 234.034 160.545 234.21 162.833V182.544C229.986 182.404 228.695 179.201 228.578 177.617V161.777Z" fill="#A20021" fill-opacity="0.16"/>
<path d="M224.352 103.6C225.619 94.1667 233.563 91.9257 237.376 91.9843C239.488 91.2803 238.784 88.6403 237.376 88.4643C224.141 89.0275 220.832 98.6721 220.832 103.424L220.656 116.976C221.783 128.24 230.747 131.994 235.088 132.464L240.896 132.64H247.76C259.587 133.062 263.834 122.96 264.479 117.856V103.424C264.339 100.468 262.778 97.2646 262.016 96.0325C258.073 89.415 251.338 88.23 248.464 88.4646C246.528 89.5206 247.349 91.5151 248.464 91.9843C257.334 92.5473 260.373 99.8456 260.784 103.424V116.096C260.643 118.631 260.373 119.968 260.256 120.32C257.158 127.782 250.634 129.179 247.76 128.944H240.896C235.264 129.085 233.035 128.533 232.624 128.24C226.429 125.987 224.528 119.792 224.352 116.976V103.6Z" fill="#A20021" fill-opacity="0.16"/>
<path d="M240.369 87.584C240.228 86.4576 241.249 86.0587 241.777 86H243.888C245.015 86.1408 245.296 87.1146 245.296 87.584L244.768 92.8639C244.768 93.7087 244.182 94.0372 243.888 94.0959H241.777C241.073 93.9551 240.779 93.2159 240.721 92.8639C240.662 91.5732 240.509 88.7104 240.369 87.584Z" fill="#A20021" fill-opacity="0.16"/>
<path d="M228.578 103.777C231.112 94.3431 238.903 96.0913 242.482 98.1446H243.186C250.93 93.2171 256.386 99.9051 256.386 104.593V119.617C256.245 123.277 252.69 124.427 250.93 124.544V104.593C249.698 100.257 245.474 102.193 245.298 104.593V123.488C245.298 124.333 244.594 124.544 244.242 124.544H240.722C240.018 124.404 239.842 123.782 239.842 123.488V104.593C238.258 100.081 234.034 102.545 234.21 104.833V124.544C229.986 124.404 228.695 121.201 228.578 119.617V103.777Z" fill="#A20021" fill-opacity="0.16"/>
<path d="M224.352 45.6001C225.619 36.1667 233.563 33.9257 237.376 33.9843C239.488 33.2803 238.784 30.6403 237.376 30.4643C224.141 31.0275 220.832 40.6721 220.832 45.4241L220.656 58.9762C221.783 70.2402 230.747 73.9944 235.088 74.4636L240.896 74.6395H247.76C259.587 75.0619 263.834 64.9597 264.479 59.8558V45.4244C264.339 42.4679 262.778 39.2646 262.016 38.0325C258.073 31.415 251.338 30.23 248.464 30.4646C246.528 31.5206 247.349 33.5151 248.464 33.9843C257.334 34.5473 260.373 41.8456 260.784 45.4244V58.0962C260.643 60.6305 260.373 61.9681 260.256 62.3201C257.158 69.7824 250.634 71.1786 247.76 70.9439H240.896C235.264 71.0847 233.035 70.5333 232.624 70.24C226.429 67.9872 224.528 61.7921 224.352 58.9762V45.6001Z" fill="#A20021" fill-opacity="0.16"/>
<path d="M240.369 29.584C240.228 28.4576 241.249 28.0587 241.777 28H243.888C245.015 28.1408 245.296 29.1146 245.296 29.584L244.768 34.8639C244.768 35.7087 244.182 36.0372 243.888 36.0959H241.777C241.073 35.9551 240.779 35.2159 240.721 34.8639C240.662 33.5732 240.509 30.7104 240.369 29.584Z" fill="#A20021" fill-opacity="0.16"/>
<path d="M228.578 45.7765C231.112 36.3431 238.903 38.0913 242.482 40.1446H243.186C250.93 35.2171 256.386 41.9051 256.386 46.5927V61.6166C256.245 65.2773 252.69 66.4271 250.93 66.5445V46.5927C249.698 42.2569 245.474 44.1929 245.298 46.5927V65.4885C245.298 66.3333 244.594 66.5445 244.242 66.5445H240.722C240.018 66.4037 239.842 65.7818 239.842 65.4885V46.5927C238.258 42.0809 234.034 44.5449 234.21 46.8328V66.5445C229.986 66.4037 228.695 63.2005 228.578 61.6166V45.7765Z" fill="#A20021" fill-opacity="0.16"/>
<path d="M224.352 -12.3999C225.619 -21.8333 233.563 -24.0743 237.376 -24.0157C239.488 -24.7197 238.784 -27.3597 237.376 -27.5357C224.141 -26.9725 220.832 -17.3279 220.832 -12.5759L220.656 0.976154C221.783 12.2402 230.747 15.9944 235.088 16.4636L240.896 16.6395H247.76C259.587 17.0619 263.834 6.95972 264.479 1.8558V-12.5756C264.339 -15.5321 262.778 -18.7354 262.016 -19.9675C258.073 -26.585 251.338 -27.77 248.464 -27.5354C246.528 -26.4794 247.349 -24.4849 248.464 -24.0157C257.334 -23.4527 260.373 -16.1544 260.784 -12.5756V0.0961704C260.643 2.63053 260.373 3.9681 260.256 4.3201C257.158 11.7824 250.634 13.1786 247.76 12.9439H240.896C235.264 13.0847 233.035 12.5333 232.624 12.24C226.429 9.9872 224.528 3.79211 224.352 0.976154V-12.3999Z" fill="#A20021" fill-opacity="0.16"/>
<path d="M228.578 -12.2235C231.112 -21.6569 238.903 -19.9087 242.482 -17.8554H243.186C250.93 -22.7829 256.386 -16.0949 256.386 -11.4073V3.61656C256.245 7.2773 252.69 8.42715 250.93 8.54448V-11.4073C249.698 -15.7431 245.474 -13.8071 245.298 -11.4073V7.48849C245.298 8.33328 244.594 8.54448 244.242 8.54448H240.722C240.018 8.40368 239.842 7.78182 239.842 7.48849V-11.4073C238.258 -15.9191 234.034 -13.4551 234.21 -11.1672V8.54448C229.986 8.40368 228.695 5.20053 228.578 3.61656V-12.2235Z" fill="#A20021" fill-opacity="0.16"/>
<path d="M224.352 392.6C225.619 383.167 233.563 380.926 237.376 380.984C239.488 380.28 238.784 377.64 237.376 377.464C224.141 378.028 220.832 387.672 220.832 392.424L220.656 405.976C221.783 417.24 230.747 420.994 235.088 421.464L240.896 421.64H247.76C259.587 422.062 263.834 411.96 264.479 406.856V392.424C264.339 389.468 262.778 386.265 262.016 385.033C258.073 378.415 251.338 377.23 248.464 377.465C246.528 378.521 247.349 380.515 248.464 380.984C257.334 381.547 260.373 388.846 260.784 392.424V405.096C260.643 407.631 260.373 408.968 260.256 409.32C257.158 416.782 250.634 418.179 247.76 417.944H240.896C235.264 418.085 233.035 417.533 232.624 417.24C226.429 414.987 224.528 408.792 224.352 405.976V392.6Z" fill="#A20021" fill-opacity="0.16"/>
<path d="M240.369 376.584C240.228 375.458 241.249 375.059 241.777 375H243.888C245.015 375.141 245.296 376.115 245.296 376.584L244.768 381.864C244.768 382.709 244.182 383.037 243.888 383.096H241.777C241.073 382.955 240.779 382.216 240.721 381.864C240.662 380.573 240.509 377.71 240.369 376.584Z" fill="#A20021" fill-opacity="0.16"/>
<path d="M228.578 392.777C231.112 383.343 238.903 385.091 242.482 387.145H243.186C250.93 382.217 256.386 388.905 256.386 393.593V408.617C256.245 412.277 252.69 413.427 250.93 413.544V393.593C249.698 389.257 245.474 391.193 245.298 393.593V412.488C245.298 413.333 244.594 413.544 244.242 413.544H240.722C240.018 413.404 239.842 412.782 239.842 412.488V393.593C238.258 389.081 234.034 391.545 234.21 393.833V413.544C229.986 413.404 228.695 410.201 228.578 408.617V392.777Z" fill="#A20021" fill-opacity="0.16"/>
<path d="M279.172 368.428C280.44 358.995 288.383 356.754 292.196 356.812C294.308 356.108 293.604 353.468 292.196 353.292C278.961 353.856 275.653 363.5 275.653 368.252L275.477 381.804C276.603 393.068 285.567 396.823 289.908 397.292L295.716 397.468H302.58C314.407 397.89 318.654 387.788 319.3 382.684V368.253C319.159 365.296 317.599 362.093 316.836 360.861C312.894 354.243 306.159 353.058 303.284 353.293C301.348 354.349 302.169 356.343 303.284 356.812C312.154 357.375 315.193 364.674 315.604 368.253V380.924C315.463 383.459 315.193 384.796 315.076 385.148C311.978 392.61 305.455 394.007 302.58 393.772H295.716C290.084 393.913 287.855 393.361 287.444 393.068C281.249 390.815 279.348 384.62 279.172 381.804V368.428Z" fill="#A20021" fill-opacity="0.16"/>
<path d="M295.189 352.416C295.048 351.29 296.069 350.891 296.597 350.832H298.709C299.835 350.973 300.117 351.947 300.117 352.416L299.589 357.696C299.589 358.541 299.002 358.869 298.709 358.928H296.597C295.893 358.787 295.6 358.048 295.541 357.696C295.482 356.405 295.33 353.542 295.189 352.416Z" fill="#A20021" fill-opacity="0.16"/>
<path d="M283.398 368.605C285.933 359.171 293.724 360.919 297.302 362.973H298.006C305.75 358.045 311.206 364.733 311.206 369.421V384.445C311.065 388.105 307.51 389.255 305.75 389.373V369.421C304.518 365.085 300.294 367.021 300.118 369.421V388.317C300.118 389.161 299.414 389.373 299.062 389.373H295.542C294.838 389.232 294.662 388.61 294.662 388.317V369.421C293.078 364.909 288.854 367.373 289.03 369.661V389.373C284.806 389.232 283.516 386.029 283.398 384.445V368.605Z" fill="#A20021" fill-opacity="0.16"/>
<path d="M279.446 310.6C280.713 301.167 288.656 298.926 292.47 298.984C294.582 298.28 293.878 295.64 292.47 295.464C279.235 296.028 275.926 305.672 275.926 310.424L275.75 323.976C276.876 335.24 285.84 338.994 290.182 339.464L295.99 339.64H302.854C314.681 340.062 318.928 329.96 319.573 324.856V310.424C319.432 307.468 317.872 304.265 317.109 303.033C313.167 296.415 306.432 295.23 303.558 295.465C301.622 296.521 302.443 298.515 303.558 298.984C312.428 299.547 315.467 306.846 315.877 310.424V323.096C315.737 325.631 315.467 326.968 315.349 327.32C312.252 334.782 305.728 336.179 302.854 335.944H295.99C290.358 336.085 288.128 335.533 287.718 335.24C281.523 332.987 279.622 326.792 279.446 323.976V310.6Z" fill="#A20021" fill-opacity="0.16"/>
<path d="M295.462 294.584C295.322 293.458 296.342 293.059 296.87 293H298.982C300.109 293.141 300.39 294.115 300.39 294.584L299.862 299.864C299.862 300.709 299.276 301.037 298.982 301.096H296.87C296.167 300.955 295.873 300.216 295.814 299.864C295.756 298.573 295.603 295.71 295.462 294.584Z" fill="#A20021" fill-opacity="0.16"/>
<path d="M283.672 310.777C286.206 301.343 293.997 303.091 297.576 305.145H298.28C306.023 300.217 311.479 306.905 311.479 311.593V326.617C311.339 330.277 307.783 331.427 306.023 331.544V311.593C304.792 307.257 300.568 309.193 300.392 311.593V330.488C300.392 331.333 299.688 331.544 299.336 331.544H295.816C295.112 331.404 294.936 330.782 294.936 330.488V311.593C293.352 307.081 289.128 309.545 289.304 311.833V331.544C285.08 331.404 283.789 328.201 283.672 326.617V310.777Z" fill="#A20021" fill-opacity="0.16"/>
<path d="M279.446 252.6C280.713 243.167 288.656 240.926 292.47 240.984C294.582 240.28 293.878 237.64 292.47 237.464C279.235 238.028 275.926 247.672 275.926 252.424L275.75 265.976C276.876 277.24 285.84 280.994 290.182 281.464L295.99 281.64H302.854C314.681 282.062 318.928 271.96 319.573 266.856V252.424C319.432 249.468 317.872 246.265 317.109 245.033C313.167 238.415 306.432 237.23 303.558 237.465C301.622 238.521 302.443 240.515 303.558 240.984C312.428 241.547 315.467 248.846 315.877 252.424V265.096C315.737 267.631 315.467 268.968 315.349 269.32C312.252 276.782 305.728 278.179 302.854 277.944H295.99C290.358 278.085 288.128 277.533 287.718 277.24C281.523 274.987 279.622 268.792 279.446 265.976V252.6Z" fill="#A20021" fill-opacity="0.16"/>
<path d="M295.462 236.584C295.322 235.458 296.342 235.059 296.87 235H298.982C300.109 235.141 300.39 236.115 300.39 236.584L299.862 241.864C299.862 242.709 299.276 243.037 298.982 243.096H296.87C296.167 242.955 295.873 242.216 295.814 241.864C295.756 240.573 295.603 237.71 295.462 236.584Z" fill="#A20021" fill-opacity="0.16"/>
<path d="M283.672 252.777C286.206 243.343 293.997 245.091 297.576 247.145H298.28C306.023 242.217 311.479 248.905 311.479 253.593V268.617C311.339 272.277 307.783 273.427 306.023 273.544V253.593C304.792 249.257 300.568 251.193 300.392 253.593V272.488C300.392 273.333 299.688 273.544 299.336 273.544H295.816C295.112 273.404 294.936 272.782 294.936 272.488V253.593C293.352 249.081 289.128 251.545 289.304 253.833V273.544C285.08 273.404 283.789 270.201 283.672 268.617V252.777Z" fill="#A20021" fill-opacity="0.16"/>
<path d="M279.446 194.6C280.713 185.167 288.656 182.926 292.47 182.984C294.582 182.28 293.878 179.64 292.47 179.464C279.235 180.028 275.926 189.672 275.926 194.424L275.75 207.976C276.876 219.24 285.84 222.994 290.182 223.464L295.99 223.64H302.854C314.681 224.062 318.928 213.96 319.573 208.856V194.424C319.432 191.468 317.872 188.265 317.109 187.033C313.167 180.415 306.432 179.23 303.558 179.465C301.622 180.521 302.443 182.515 303.558 182.984C312.428 183.547 315.467 190.846 315.877 194.424V207.096C315.737 209.631 315.467 210.968 315.349 211.32C312.252 218.782 305.728 220.179 302.854 219.944H295.99C290.358 220.085 288.128 219.533 287.718 219.24C281.523 216.987 279.622 210.792 279.446 207.976V194.6Z" fill="#A20021" fill-opacity="0.16"/>
<path d="M295.462 178.584C295.322 177.458 296.342 177.059 296.87 177H298.982C300.109 177.141 300.39 178.115 300.39 178.584L299.862 183.864C299.862 184.709 299.276 185.037 298.982 185.096H296.87C296.167 184.955 295.873 184.216 295.814 183.864C295.756 182.573 295.603 179.71 295.462 178.584Z" fill="#A20021" fill-opacity="0.16"/>
<path d="M283.672 194.777C286.206 185.343 293.997 187.091 297.576 189.145H298.28C306.023 184.217 311.479 190.905 311.479 195.593V210.617C311.339 214.277 307.783 215.427 306.023 215.544V195.593C304.792 191.257 300.568 193.193 300.392 195.593V214.488C300.392 215.333 299.688 215.544 299.336 215.544H295.816C295.112 215.404 294.936 214.782 294.936 214.488V195.593C293.352 191.081 289.128 193.545 289.304 195.833V215.544C285.08 215.404 283.789 212.201 283.672 210.617V194.777Z" fill="#A20021" fill-opacity="0.16"/>
<path d="M279.446 136.6C280.713 127.167 288.656 124.926 292.47 124.984C294.582 124.28 293.878 121.64 292.47 121.464C279.235 122.028 275.926 131.672 275.926 136.424L275.75 149.976C276.876 161.24 285.84 164.994 290.182 165.464L295.99 165.64H302.854C314.681 166.062 318.928 155.96 319.573 150.856V136.424C319.432 133.468 317.872 130.265 317.109 129.033C313.167 122.415 306.432 121.23 303.558 121.465C301.622 122.521 302.443 124.515 303.558 124.984C312.428 125.547 315.467 132.846 315.877 136.424V149.096C315.737 151.631 315.467 152.968 315.349 153.32C312.252 160.782 305.728 162.179 302.854 161.944H295.99C290.358 162.085 288.128 161.533 287.718 161.24C281.523 158.987 279.622 152.792 279.446 149.976V136.6Z" fill="#A20021" fill-opacity="0.16"/>
<path d="M295.462 120.584C295.322 119.458 296.342 119.059 296.87 119H298.982C300.109 119.141 300.39 120.115 300.39 120.584L299.862 125.864C299.862 126.709 299.276 127.037 298.982 127.096H296.87C296.167 126.955 295.873 126.216 295.814 125.864C295.756 124.573 295.603 121.71 295.462 120.584Z" fill="#A20021" fill-opacity="0.16"/>
<path d="M283.672 136.777C286.206 127.343 293.997 129.091 297.576 131.145H298.28C306.023 126.217 311.479 132.905 311.479 137.593V152.617C311.339 156.277 307.783 157.427 306.023 157.544V137.593C304.792 133.257 300.568 135.193 300.392 137.593V156.488C300.392 157.333 299.688 157.544 299.336 157.544H295.816C295.112 157.404 294.936 156.782 294.936 156.488V137.593C293.352 133.081 289.128 135.545 289.304 137.833V157.544C285.08 157.404 283.789 154.201 283.672 152.617V136.777Z" fill="#A20021" fill-opacity="0.16"/>
<path d="M279.446 78.6001C280.713 69.1667 288.656 66.9257 292.47 66.9843C294.582 66.2803 293.878 63.6403 292.47 63.4643C279.235 64.0275 275.926 73.6721 275.926 78.4241L275.75 91.9762C276.876 103.24 285.84 106.994 290.182 107.464L295.99 107.64H302.854C314.681 108.062 318.928 97.9597 319.573 92.8558V78.4244C319.432 75.4679 317.872 72.2646 317.109 71.0325C313.167 64.415 306.432 63.23 303.558 63.4646C301.622 64.5206 302.443 66.5151 303.558 66.9843C312.428 67.5473 315.467 74.8456 315.877 78.4244V91.0962C315.737 93.6305 315.467 94.9681 315.349 95.3201C312.252 102.782 305.728 104.179 302.854 103.944H295.99C290.358 104.085 288.128 103.533 287.718 103.24C281.523 100.987 279.622 94.7921 279.446 91.9762V78.6001Z" fill="#A20021" fill-opacity="0.16"/>
<path d="M295.462 62.584C295.322 61.4576 296.342 61.0587 296.87 61H298.982C300.109 61.1408 300.39 62.1146 300.39 62.584L299.862 67.8639C299.862 68.7087 299.276 69.0372 298.982 69.0959H296.87C296.167 68.9551 295.873 68.2159 295.814 67.8639C295.756 66.5732 295.603 63.7104 295.462 62.584Z" fill="#A20021" fill-opacity="0.16"/>
<path d="M283.672 78.7765C286.206 69.3431 293.997 71.0913 297.576 73.1446H298.28C306.023 68.2171 311.479 74.9051 311.479 79.5927V94.6166C311.339 98.2773 307.783 99.4271 306.023 99.5445V79.5927C304.792 75.2569 300.568 77.1929 300.392 79.5927V98.4885C300.392 99.3333 299.688 99.5445 299.336 99.5445H295.816C295.112 99.4037 294.936 98.7818 294.936 98.4885V79.5927C293.352 75.0809 289.128 77.5449 289.304 79.8328V99.5445C285.08 99.4037 283.789 96.2005 283.672 94.6166V78.7765Z" fill="#A20021" fill-opacity="0.16"/>
<path d="M279.446 20.6001C280.713 11.1667 288.656 8.92566 292.47 8.98433C294.582 8.28026 293.878 5.64031 292.47 5.46431C279.235 6.0275 275.926 15.6721 275.926 20.4241L275.75 33.9762C276.876 45.2402 285.84 48.9944 290.182 49.4636L295.99 49.6395H302.854C314.681 50.0619 318.928 39.9597 319.573 34.8558V20.4244C319.432 17.4679 317.872 14.2646 317.109 13.0325C313.167 6.41503 306.432 5.22999 303.558 5.46465C301.622 6.52063 302.443 8.51509 303.558 8.98433C312.428 9.54731 315.467 16.8456 315.877 20.4244V33.0962C315.737 35.6305 315.467 36.9681 315.349 37.3201C312.252 44.7824 305.728 46.1786 302.854 45.9439H295.99C290.358 46.0847 288.128 45.5333 287.718 45.24C281.523 42.9872 279.622 36.7921 279.446 33.9762V20.6001Z" fill="#A20021" fill-opacity="0.16"/>
<path d="M295.462 4.58397C295.322 3.45759 296.342 3.05867 296.87 3H298.982C300.109 3.1408 300.39 4.11465 300.39 4.58397L299.862 9.86388C299.862 10.7087 299.276 11.0372 298.982 11.0959H296.87C296.167 10.9551 295.873 10.2159 295.814 9.86388C295.756 8.57324 295.603 5.71035 295.462 4.58397Z" fill="#A20021" fill-opacity="0.16"/>
<path d="M283.672 20.7765C286.206 11.3431 293.997 13.0913 297.576 15.1446H298.28C306.023 10.2171 311.479 16.9051 311.479 21.5927V36.6166C311.339 40.2773 307.783 41.4271 306.023 41.5445V21.5927C304.792 17.2569 300.568 19.1929 300.392 21.5927V40.4885C300.392 41.3333 299.688 41.5445 299.336 41.5445H295.816C295.112 41.4037 294.936 40.7818 294.936 40.4885V21.5927C293.352 17.0809 289.128 19.5449 289.304 21.8328V41.5445C285.08 41.4037 283.789 38.2005 283.672 36.6166V20.7765Z" fill="#A20021" fill-opacity="0.16"/>
<path d="M279.446 425.6C280.713 416.167 288.656 413.926 292.47 413.984C294.582 413.28 293.878 410.64 292.47 410.464C279.235 411.028 275.926 420.672 275.926 425.424L275.75 438.976C276.876 450.24 285.84 453.994 290.182 454.464L295.99 454.64H302.854C314.681 455.062 318.928 444.96 319.573 439.856V425.424C319.432 422.468 317.872 419.265 317.109 418.033C313.167 411.415 306.432 410.23 303.558 410.465C301.622 411.521 302.443 413.515 303.558 413.984C312.428 414.547 315.467 421.846 315.877 425.424V438.096C315.737 440.631 315.467 441.968 315.349 442.32C312.252 449.782 305.728 451.179 302.854 450.944H295.99C290.358 451.085 288.128 450.533 287.718 450.24C281.523 447.987 279.622 441.792 279.446 438.976V425.6Z" fill="#A20021" fill-opacity="0.16"/>
<path d="M295.462 409.584C295.322 408.458 296.342 408.059 296.87 408H298.982C300.109 408.141 300.39 409.115 300.39 409.584L299.862 414.864C299.862 415.709 299.276 416.037 298.982 416.096H296.87C296.167 415.955 295.873 415.216 295.814 414.864C295.756 413.573 295.603 410.71 295.462 409.584Z" fill="#A20021" fill-opacity="0.16"/>
<path d="M283.672 425.777C286.206 416.343 293.997 418.091 297.576 420.145H298.28C306.023 415.217 311.479 421.905 311.479 426.593V441.617C311.339 445.277 307.783 446.427 306.023 446.544V426.593C304.792 422.257 300.568 424.193 300.392 426.593V445.488C300.392 446.333 299.688 446.544 299.336 446.544H295.816C295.112 446.404 294.936 445.782 294.936 445.488V426.593C293.352 422.081 289.128 424.545 289.304 426.833V446.544C285.08 446.404 283.789 443.201 283.672 441.617V425.777Z" fill="#A20021" fill-opacity="0.16"/>
<path d="M334.27 337.428C335.537 327.995 343.481 325.754 347.294 325.812C349.406 325.108 348.702 322.468 347.294 322.292C334.059 322.856 330.75 332.5 330.75 337.252L330.574 350.804C331.701 362.068 340.665 365.823 345.006 366.292L350.814 366.468H357.678C369.505 366.89 373.752 356.788 374.397 351.684V337.253C374.257 334.296 372.696 331.093 371.934 329.861C367.991 323.243 361.256 322.058 358.382 322.293C356.446 323.349 357.267 325.343 358.382 325.812C367.252 326.375 370.291 333.674 370.702 337.253V349.924C370.561 352.459 370.291 353.796 370.174 354.148C367.076 361.61 360.552 363.007 357.678 362.772H350.814C345.182 362.913 342.953 362.361 342.542 362.068C336.347 359.815 334.446 353.62 334.27 350.804V337.428Z" fill="#A20021" fill-opacity="0.16"/>
<path d="M350.287 321.416C350.146 320.29 351.167 319.891 351.695 319.832H353.806C354.933 319.973 355.214 320.947 355.214 321.416L354.686 326.696C354.686 327.541 354.1 327.869 353.806 327.928H351.695C350.991 327.787 350.697 327.048 350.638 326.696C350.58 325.405 350.427 322.542 350.287 321.416Z" fill="#A20021" fill-opacity="0.16"/>
<path d="M338.492 337.605C341.027 328.171 348.817 329.919 352.396 331.973H353.1C360.844 327.045 366.3 333.733 366.3 338.421V353.445C366.159 357.105 362.604 358.255 360.844 358.373V338.421C359.612 334.085 355.388 336.021 355.212 338.421V357.317C355.212 358.161 354.508 358.373 354.156 358.373H350.636C349.932 358.232 349.756 357.61 349.756 357.317V338.421C348.172 333.909 343.948 336.373 344.124 338.661V358.373C339.9 358.232 338.61 355.029 338.492 353.445V337.605Z" fill="#A20021" fill-opacity="0.16"/>
<path d="M334.544 279.6C335.811 270.167 343.754 267.926 347.567 267.984C349.679 267.28 348.975 264.64 347.567 264.464C334.332 265.028 331.024 274.672 331.024 279.424L330.848 292.976C331.974 304.24 340.938 307.994 345.279 308.464L351.087 308.64H357.951C369.778 309.062 374.026 298.96 374.671 293.856V279.424C374.53 276.468 372.97 273.265 372.207 272.033C368.265 265.415 361.53 264.23 358.655 264.465C356.719 265.521 357.541 267.515 358.655 267.984C367.525 268.547 370.564 275.846 370.975 279.424V292.096C370.834 294.631 370.564 295.968 370.447 296.32C367.349 303.782 360.826 305.179 357.951 304.944H351.087C345.455 305.085 343.226 304.533 342.815 304.24C336.62 301.987 334.72 295.792 334.544 292.976V279.6Z" fill="#A20021" fill-opacity="0.16"/>
<path d="M350.56 263.584C350.419 262.458 351.44 262.059 351.968 262H354.08C355.206 262.141 355.488 263.115 355.488 263.584L354.96 268.864C354.96 269.709 354.373 270.037 354.08 270.096H351.968C351.264 269.955 350.971 269.216 350.912 268.864C350.853 267.573 350.701 264.71 350.56 263.584Z" fill="#A20021" fill-opacity="0.16"/>
<path d="M338.766 279.777C341.3 270.343 349.091 272.091 352.669 274.145H353.373C361.117 269.217 366.573 275.905 366.573 280.593V295.617C366.432 299.277 362.877 300.427 361.117 300.544V280.593C359.885 276.257 355.661 278.193 355.485 280.593V299.488C355.485 300.333 354.781 300.544 354.429 300.544H350.909C350.205 300.404 350.029 299.782 350.029 299.488V280.593C348.445 276.081 344.222 278.545 344.398 280.833V300.544C340.174 300.404 338.883 297.201 338.766 295.617V279.777Z" fill="#A20021" fill-opacity="0.16"/>
<path d="M334.544 221.6C335.811 212.167 343.754 209.926 347.567 209.984C349.679 209.28 348.975 206.64 347.567 206.464C334.332 207.028 331.024 216.672 331.024 221.424L330.848 234.976C331.974 246.24 340.938 249.994 345.279 250.464L351.087 250.64H357.951C369.778 251.062 374.026 240.96 374.671 235.856V221.424C374.53 218.468 372.97 215.265 372.207 214.033C368.265 207.415 361.53 206.23 358.655 206.465C356.719 207.521 357.541 209.515 358.655 209.984C367.525 210.547 370.564 217.846 370.975 221.424V234.096C370.834 236.631 370.564 237.968 370.447 238.32C367.349 245.782 360.826 247.179 357.951 246.944H351.087C345.455 247.085 343.226 246.533 342.815 246.24C336.62 243.987 334.72 237.792 334.544 234.976V221.6Z" fill="#A20021" fill-opacity="0.16"/>
<path d="M350.56 205.584C350.419 204.458 351.44 204.059 351.968 204H354.08C355.206 204.141 355.488 205.115 355.488 205.584L354.96 210.864C354.96 211.709 354.373 212.037 354.08 212.096H351.968C351.264 211.955 350.971 211.216 350.912 210.864C350.853 209.573 350.701 206.71 350.56 205.584Z" fill="#A20021" fill-opacity="0.16"/>
<path d="M338.766 221.777C341.3 212.343 349.091 214.091 352.669 216.145H353.373C361.117 211.217 366.573 217.905 366.573 222.593V237.617C366.432 241.277 362.877 242.427 361.117 242.544V222.593C359.885 218.257 355.661 220.193 355.485 222.593V241.488C355.485 242.333 354.781 242.544 354.429 242.544H350.909C350.205 242.404 350.029 241.782 350.029 241.488V222.593C348.445 218.081 344.222 220.545 344.398 222.833V242.544C340.174 242.404 338.883 239.201 338.766 237.617V221.777Z" fill="#A20021" fill-opacity="0.16"/>
<path d="M334.544 163.6C335.811 154.167 343.754 151.926 347.567 151.984C349.679 151.28 348.975 148.64 347.567 148.464C334.332 149.028 331.024 158.672 331.024 163.424L330.848 176.976C331.974 188.24 340.938 191.994 345.279 192.464L351.087 192.64H357.951C369.778 193.062 374.026 182.96 374.671 177.856V163.424C374.53 160.468 372.97 157.265 372.207 156.033C368.265 149.415 361.53 148.23 358.655 148.465C356.719 149.521 357.541 151.515 358.655 151.984C367.525 152.547 370.564 159.846 370.975 163.424V176.096C370.834 178.631 370.564 179.968 370.447 180.32C367.349 187.782 360.826 189.179 357.951 188.944H351.087C345.455 189.085 343.226 188.533 342.815 188.24C336.62 185.987 334.72 179.792 334.544 176.976V163.6Z" fill="#A20021" fill-opacity="0.16"/>
<path d="M350.56 147.584C350.419 146.458 351.44 146.059 351.968 146H354.08C355.206 146.141 355.488 147.115 355.488 147.584L354.96 152.864C354.96 153.709 354.373 154.037 354.08 154.096H351.968C351.264 153.955 350.971 153.216 350.912 152.864C350.853 151.573 350.701 148.71 350.56 147.584Z" fill="#A20021" fill-opacity="0.16"/>
<path d="M338.766 163.777C341.3 154.343 349.091 156.091 352.669 158.145H353.373C361.117 153.217 366.573 159.905 366.573 164.593V179.617C366.432 183.277 362.877 184.427 361.117 184.544V164.593C359.885 160.257 355.661 162.193 355.485 164.593V183.488C355.485 184.333 354.781 184.544 354.429 184.544H350.909C350.205 184.404 350.029 183.782 350.029 183.488V164.593C348.445 160.081 344.222 162.545 344.398 164.833V184.544C340.174 184.404 338.883 181.201 338.766 179.617V163.777Z" fill="#A20021" fill-opacity="0.16"/>
<path d="M334.544 105.6C335.811 96.1667 343.754 93.9257 347.567 93.9843C349.679 93.2803 348.975 90.6403 347.567 90.4643C334.332 91.0275 331.024 100.672 331.024 105.424L330.848 118.976C331.974 130.24 340.938 133.994 345.279 134.464L351.087 134.64H357.951C369.778 135.062 374.026 124.96 374.671 119.856V105.424C374.53 102.468 372.97 99.2646 372.207 98.0325C368.265 91.415 361.53 90.23 358.655 90.4646C356.719 91.5206 357.541 93.5151 358.655 93.9843C367.525 94.5473 370.564 101.846 370.975 105.424V118.096C370.834 120.631 370.564 121.968 370.447 122.32C367.349 129.782 360.826 131.179 357.951 130.944H351.087C345.455 131.085 343.226 130.533 342.815 130.24C336.62 127.987 334.72 121.792 334.544 118.976V105.6Z" fill="#A20021" fill-opacity="0.16"/>
<path d="M350.56 89.584C350.419 88.4576 351.44 88.0587 351.968 88H354.08C355.206 88.1408 355.488 89.1146 355.488 89.584L354.96 94.8639C354.96 95.7087 354.373 96.0372 354.08 96.0959H351.968C351.264 95.9551 350.971 95.2159 350.912 94.8639C350.853 93.5732 350.701 90.7104 350.56 89.584Z" fill="#A20021" fill-opacity="0.16"/>
<path d="M338.766 105.777C341.3 96.3431 349.091 98.0913 352.669 100.145H353.373C361.117 95.2171 366.573 101.905 366.573 106.593V121.617C366.432 125.277 362.877 126.427 361.117 126.544V106.593C359.885 102.257 355.661 104.193 355.485 106.593V125.488C355.485 126.333 354.781 126.544 354.429 126.544H350.909C350.205 126.404 350.029 125.782 350.029 125.488V106.593C348.445 102.081 344.222 104.545 344.398 106.833V126.544C340.174 126.404 338.883 123.201 338.766 121.617V105.777Z" fill="#A20021" fill-opacity="0.16"/>
<path d="M334.544 47.6001C335.811 38.1667 343.754 35.9257 347.567 35.9843C349.679 35.2803 348.975 32.6403 347.567 32.4643C334.332 33.0275 331.024 42.6721 331.024 47.4241L330.848 60.9762C331.974 72.2402 340.938 75.9944 345.279 76.4636L351.087 76.6395H357.951C369.778 77.0619 374.026 66.9597 374.671 61.8558V47.4244C374.53 44.4679 372.97 41.2646 372.207 40.0325C368.265 33.415 361.53 32.23 358.655 32.4646C356.719 33.5206 357.541 35.5151 358.655 35.9843C367.525 36.5473 370.564 43.8456 370.975 47.4244V60.0962C370.834 62.6305 370.564 63.9681 370.447 64.3201C367.349 71.7824 360.826 73.1786 357.951 72.9439H351.087C345.455 73.0847 343.226 72.5333 342.815 72.24C336.62 69.9872 334.72 63.7921 334.544 60.9762V47.6001Z" fill="#A20021" fill-opacity="0.16"/>
<path d="M350.56 31.584C350.419 30.4576 351.44 30.0587 351.968 30H354.08C355.206 30.1408 355.488 31.1146 355.488 31.584L354.96 36.8639C354.96 37.7087 354.373 38.0372 354.08 38.0959H351.968C351.264 37.9551 350.971 37.2159 350.912 36.8639C350.853 35.5732 350.701 32.7104 350.56 31.584Z" fill="#A20021" fill-opacity="0.16"/>
<path d="M338.766 47.7765C341.3 38.3431 349.091 40.0913 352.669 42.1446H353.373C361.117 37.2171 366.573 43.9051 366.573 48.5927V63.6166C366.432 67.2773 362.877 68.4271 361.117 68.5445V48.5927C359.885 44.2569 355.661 46.1929 355.485 48.5927V67.4885C355.485 68.3333 354.781 68.5445 354.429 68.5445H350.909C350.205 68.4037 350.029 67.7818 350.029 67.4885V48.5927C348.445 44.0809 344.222 46.5449 344.398 48.8328V68.5445C340.174 68.4037 338.883 65.2005 338.766 63.6166V47.7765Z" fill="#A20021" fill-opacity="0.16"/>
<path d="M334.544 -10.3999C335.811 -19.8333 343.754 -22.0743 347.567 -22.0157C349.679 -22.7197 348.975 -25.3597 347.567 -25.5357C334.332 -24.9725 331.024 -15.3279 331.024 -10.5759L330.848 2.97615C331.974 14.2402 340.938 17.9944 345.279 18.4636L351.087 18.6395H357.951C369.778 19.0619 374.026 8.95972 374.671 3.8558V-10.5756C374.53 -13.5321 372.97 -16.7354 372.207 -17.9675C368.265 -24.585 361.53 -25.77 358.655 -25.5354C356.719 -24.4794 357.541 -22.4849 358.655 -22.0157C367.525 -21.4527 370.564 -14.1544 370.975 -10.5756V2.09617C370.834 4.63053 370.564 5.9681 370.447 6.3201C367.349 13.7824 360.826 15.1786 357.951 14.9439H351.087C345.455 15.0847 343.226 14.5333 342.815 14.24C336.62 11.9872 334.72 5.79211 334.544 2.97615V-10.3999Z" fill="#A20021" fill-opacity="0.16"/>
<path d="M338.766 -10.2235C341.3 -19.6569 349.091 -17.9087 352.669 -15.8554H353.373C361.117 -20.7829 366.573 -14.0949 366.573 -9.40727V5.61656C366.432 9.2773 362.877 10.4271 361.117 10.5445V-9.40727C359.885 -13.7431 355.661 -11.8071 355.485 -9.40727V9.48849C355.485 10.3333 354.781 10.5445 354.429 10.5445H350.909C350.205 10.4037 350.029 9.78182 350.029 9.48849V-9.40727C348.445 -13.9191 344.222 -11.4551 344.398 -9.16718V10.5445C340.174 10.4037 338.883 7.20053 338.766 5.61656V-10.2235Z" fill="#A20021" fill-opacity="0.16"/>
<path d="M334.544 394.6C335.811 385.167 343.754 382.926 347.567 382.984C349.679 382.28 348.975 379.64 347.567 379.464C334.332 380.028 331.024 389.672 331.024 394.424L330.848 407.976C331.974 419.24 340.938 422.994 345.279 423.464L351.087 423.64H357.951C369.778 424.062 374.026 413.96 374.671 408.856V394.424C374.53 391.468 372.97 388.265 372.207 387.033C368.265 380.415 361.53 379.23 358.655 379.465C356.719 380.521 357.541 382.515 358.655 382.984C367.525 383.547 370.564 390.846 370.975 394.424V407.096C370.834 409.631 370.564 410.968 370.447 411.32C367.349 418.782 360.826 420.179 357.951 419.944H351.087C345.455 420.085 343.226 419.533 342.815 419.24C336.62 416.987 334.72 410.792 334.544 407.976V394.6Z" fill="#A20021" fill-opacity="0.16"/>
<path d="M350.56 378.584C350.419 377.458 351.44 377.059 351.968 377H354.08C355.206 377.141 355.488 378.115 355.488 378.584L354.96 383.864C354.96 384.709 354.373 385.037 354.08 385.096H351.968C351.264 384.955 350.971 384.216 350.912 383.864C350.853 382.573 350.701 379.71 350.56 378.584Z" fill="#A20021" fill-opacity="0.16"/>
<path d="M338.766 394.777C341.3 385.343 349.091 387.091 352.669 389.145H353.373C361.117 384.217 366.573 390.905 366.573 395.593V410.617C366.432 414.277 362.877 415.427 361.117 415.544V395.593C359.885 391.257 355.661 393.193 355.485 395.593V414.488C355.485 415.333 354.781 415.544 354.429 415.544H350.909C350.205 415.404 350.029 414.782 350.029 414.488V395.593C348.445 391.081 344.222 393.545 344.398 395.833V415.544C340.174 415.404 338.883 412.201 338.766 410.617V394.777Z" fill="#A20021" fill-opacity="0.16"/>
</svg>
