<svg width="70" height="74" viewBox="0 0 70 74" fill="none" xmlns="http://www.w3.org/2000/svg">
<g filter="url(#filter0_d_254_234)">
<path d="M9.22892 24.9009C11.0217 11.5547 22.2597 8.38418 27.6546 8.46718C30.6426 7.47109 29.6466 3.73615 27.6546 3.48715C8.93012 4.28394 4.249 17.9289 4.249 24.6518L4 43.825C5.59357 59.7611 18.2758 65.0725 24.4177 65.7361L32.6345 65.9851H42.3454C59.0779 66.5827 65.087 52.2904 66 45.0695V24.6523C65.8008 20.4695 63.593 15.9376 62.5141 14.1945C56.9365 4.83221 47.4083 3.15563 43.3414 3.48763C40.6024 4.9816 41.7644 7.80331 43.3414 8.46718C55.8908 9.26367 60.1901 19.5891 60.7711 24.6523V42.58C60.5719 46.1655 60.1901 48.0579 60.0241 48.5559C55.6418 59.1133 46.4123 61.0887 42.3454 60.7567H32.6345C24.6667 60.9559 21.5127 60.1757 20.9317 59.7607C12.1671 56.5736 9.47791 47.8089 9.22892 43.825V24.9009Z" fill="white"/>
<path d="M31.8859 2.24096C31.6867 0.64739 33.1308 0.0829987 33.8778 0H36.8656C38.4592 0.199197 38.8576 1.57697 38.8576 2.24096L38.1106 9.71084C38.1106 10.906 37.2806 11.3708 36.8656 11.4538H33.8778C32.882 11.2546 32.4668 10.2088 32.3837 9.71084C32.3007 7.88487 32.0851 3.83454 31.8859 2.24096Z" fill="white"/>
<path d="M15.2031 25.1467C18.7887 11.8005 29.8109 14.2739 34.8738 17.1789H35.8698C46.8256 10.2074 54.5445 19.6695 54.5445 26.3014V47.5568C54.3453 52.7359 49.3156 54.3627 46.8256 54.5287V26.3014C45.0826 20.1672 39.1067 22.9062 38.8577 26.3014V53.0347C38.8577 54.2299 37.8618 54.5287 37.3638 54.5287H32.3838C31.3879 54.3295 31.1389 53.4497 31.1389 53.0347V26.3014C28.8979 19.9182 22.922 23.4042 23.171 26.6411V54.5287C17.1951 54.3295 15.3691 49.7977 15.2031 47.5568V25.1467Z" fill="white"/>
</g>
<defs>
<filter id="filter0_d_254_234" x="0" y="0" width="70" height="74.0039" filterUnits="userSpaceOnUse" color-interpolation-filters="sRGB">
<feFlood flood-opacity="0" result="BackgroundImageFix"/>
<feColorMatrix in="SourceAlpha" type="matrix" values="0 0 0 0 0 0 0 0 0 0 0 0 0 0 0 0 0 0 127 0" result="hardAlpha"/>
<feOffset dy="4"/>
<feGaussianBlur stdDeviation="2"/>
<feComposite in2="hardAlpha" operator="out"/>
<feColorMatrix type="matrix" values="0 0 0 0 0 0 0 0 0 0 0 0 0 0 0 0 0 0 0.25 0"/>
<feBlend mode="normal" in2="BackgroundImageFix" result="effect1_dropShadow_254_234"/>
<feBlend mode="normal" in="SourceGraphic" in2="effect1_dropShadow_254_234" result="shape"/>
</filter>
</defs>
</svg>
